<?xml version="1.0" encoding="utf-8"?>
<!-- Generator: Adobe Illustrator 24.1.2, SVG Export Plug-In . SVG Version: 6.00 Build 0)  -->
<svg version="1.1" id="Layer_1" xmlns="http://www.w3.org/2000/svg" xmlns:xlink="http://www.w3.org/1999/xlink" x="0px" y="0px"
	 viewBox="0 0 450 250" style="enable-background:new 0 0 450 250;" xml:space="preserve">
<style type="text/css">
	.st0{fill:#FFFFFF;}
	.st1{clip-path:url(#SVGID_2_);fill:url(#SVGID_3_);}
	.st2{clip-path:url(#SVGID_5_);fill:url(#SVGID_6_);}
	.st3{clip-path:url(#SVGID_8_);fill:url(#SVGID_9_);}
	.st4{fill:url(#SVGID_10_);}
	.st5{fill:#57595B;}
</style>
<rect class="st0" width="450" height="250"/>
<g>
	<defs>
		<path id="SVGID_1_" d="M229.1,169.2c1.1,0.6,3.7,1.9,5.1,1.7c0.5-1.7,0-5-0.2-6.7c-1.4-10.1-3.7-18.6-7-28c-0.5,0.3-1,0.5-1.5,0.7
			c-0.8,0.4-1.7,0.8-2.5,1.2c-0.1,0.1-0.3,0.1-0.4,0.2c-0.1,0.1-0.3,0.1-0.4,0.2c-0.8,0.4-1.5,0.7-2.2,1.1c-3.9,1.8-7.8,3.5-11.5,5
			c3.7,6.2,7.8,12,12.4,17.2C222.9,164.6,226,167.4,229.1,169.2z"/>
	</defs>
	<clipPath id="SVGID_2_">
		<use xlink:href="#SVGID_1_"  style="overflow:visible;"/>
	</clipPath>
	<linearGradient id="SVGID_3_" gradientUnits="userSpaceOnUse" x1="206.547" y1="211.088" x2="269.8922" y2="43.4496">
		<stop  offset="0" style="stop-color:#FACF5C"/>
		<stop  offset="1" style="stop-color:#FF7257"/>
	</linearGradient>
	<rect x="165.1" y="59.1" class="st1" width="146.3" height="136.3"/>
</g>
<g>
	<defs>
		<path id="SVGID_4_" d="M260.1,145c0-3.2-2-8.7-3.3-11.7c-2-4.5-3.7-7.9-5.5-11.2c-3.3,2.1-6.7,4.3-10.3,6.4
			c0.9,1.4,1.8,2.6,2.6,3.6C247.4,137.1,253.6,144,260.1,145z"/>
	</defs>
	<clipPath id="SVGID_5_">
		<use xlink:href="#SVGID_4_"  style="overflow:visible;"/>
	</clipPath>
	<linearGradient id="SVGID_6_" gradientUnits="userSpaceOnUse" x1="206.547" y1="211.088" x2="269.8922" y2="43.4496">
		<stop  offset="0" style="stop-color:#FACF5C"/>
		<stop  offset="1" style="stop-color:#FF7257"/>
	</linearGradient>
	<rect x="165.1" y="59.1" class="st2" width="146.3" height="136.3"/>
</g>
<g>
	<defs>
		<path id="SVGID_7_" d="M309.8,69.6c-4.3-8.3-16.9-11.3-33.9-9.6c-1.7,0.2-3.4,0.4-5.2,0.7c2.4,0,4.2,0.4,5.6,1.1
			c7.7,0.1,13.4,1.9,16.4,5.4c0.5,0.6,0.9,1.1,1.2,1.8c3.1,5.9-0.2,14.5-8.2,24.2c-5.5,6.7-13.3,13.9-22.8,21
			c4.8,10.2,9.7,22.9,9.5,31.9c-0.1,5.7-2.9,10.4-8.8,11.5c-3,0.6-6.1-0.1-8.9-1c-4.1-1.4-7.7-3.8-11.1-6.4
			c1.1,4.6,1.9,8.8,2.5,13.5c0.6,4.1,0.7,8.5-0.6,12.5c-2.1,6.2-7.3,9.5-13.8,8.9c-7.1-0.7-14.1-5.4-19.2-10.2
			c-7.4-6.9-13.3-15.5-18-24.9c-11,3.6-21.1,5.8-29.5,6.5c2.5,5.4,5.8,10.4,9.6,15c12.5,14.8,31.2,24.3,52.1,24.3
			c37.6,0,68.1-30.5,68.1-68.1c0-6.2-0.8-12.2-2.4-17.8C307.8,93.9,314.8,79.2,309.8,69.6z"/>
	</defs>
	<clipPath id="SVGID_8_">
		<use xlink:href="#SVGID_7_"  style="overflow:visible;"/>
	</clipPath>
	<linearGradient id="SVGID_9_" gradientUnits="userSpaceOnUse" x1="206.547" y1="211.088" x2="269.8922" y2="43.4496">
		<stop  offset="0" style="stop-color:#FACF5C"/>
		<stop  offset="1" style="stop-color:#FF7257"/>
	</linearGradient>
	<rect x="165.1" y="59.1" class="st3" width="146.3" height="136.3"/>
</g>
<linearGradient id="SVGID_10_" gradientUnits="userSpaceOnUse" x1="185.3627" y1="72.4871" x2="219.727" y2="132.0078">
	<stop  offset="0" style="stop-color:#D45EFF"/>
	<stop  offset="1" style="stop-color:#7519EE"/>
</linearGradient>
<path class="st4" d="M272,76.4c-5.4-4.8-11.6-8.8-18.4-11.7c-0.2-0.1-0.5-0.2-0.7-0.3c-0.2-0.1-0.4-0.1-0.5-0.2
	c-0.2-0.1-0.4-0.2-0.5-0.2c-7.8-3.1-16.2-4.8-25.1-4.8c-32.5,0-59.7,22.7-66.5,53.2c0,0.2-0.1,0.4-0.1,0.6c0,0.2-0.1,0.4-0.1,0.6
	c0,0.3-0.1,0.5-0.1,0.8c-0.8,4.2-1.3,8.6-1.3,13.1c0,2.8,0.2,5.5,0.5,8.2c-7.1,1-11.9,0.3-13.4-2.4c-0.4-0.7-0.5-1.6-0.4-2.5
	c0.2-1.5,1-3.3,2.3-5.2c-1.2,1.3-2.4,2.6-3.5,4c-4.9,6.7-6.7,12.4-4.7,16.3c0.3,0.6,0.6,1.1,1.1,1.5c3.5,3.8,11.4,4.8,22.1,3.3
	c8.2-1.1,18-3.7,28.8-7.5c-3.5-8.3-6.1-17-7.7-25.4c-1.4-7-3.1-17.1-2.4-24.2c1.3-13.3,13.9-12.5,15.4-5.1c0.5,2.4-0.5,4.7-2.4,6.2
	c-0.2,0.2-0.3,0.7-0.4,0.9c-0.8,2.8-0.3,7.3,0.1,10.2c1.6,11.1,5.4,22,10.6,32.2c6.3-2.5,12.9-5.4,19.8-8.9
	c-0.6-1.8-1.2-3.6-1.8-5.4c-0.9-2.9-1.7-5.8-2-8.8c-0.2-1.8-0.1-3.7,0.6-5.3c2.1-4.4,7.7-5,10.8-0.6c1.8,2.6,1.3,4.5,2.3,7.6
	c0.5,1.6,1.5,3.6,2.7,5.7c3.6-2.1,7-4.2,10.3-6.4c-1.1-1.8-2.4-3.7-3.8-5.8c-1.6-2.5-3.3-5.1-4.7-7.8c-3.6-5.9,0.1-13.1,6.6-12.8
	c2.4,0.1,4.4,1.4,5.9,3.2c1.9,2.2,6.2,10.4,7.6,13.2c0.2,0.4,0.5,0.9,0.7,1.4c0,0,0,0,0.1,0c8.8-6.6,16.3-13.2,22.7-19.3
	C279.3,83.6,275.9,79.7,272,76.4z"/>
<g>
	<g>
		<path class="st5" d="M176.8,207.3l-3.2,18.2h-5.7l1.6-9.1l-4.4,9.1h-4.9l-1.2-9.1l-1.6,9.1h-5.7l3.2-18.2h7l2.1,11l5.8-11H176.8z"
			/>
		<path class="st5" d="M183.5,211l1.4,7.4l3.9-7.4h6.3l-13.1,21.5h-6.3l5-7.7l-3.6-13.8H183.5z"/>
		<path class="st5" d="M209.9,214.7c-0.7,0.7-1.5,1.2-2.5,1.5c0.9,0.2,1.6,0.6,2,1.3c0.5,0.6,0.7,1.4,0.7,2.2c0,0.3,0,0.6-0.1,0.9
			c-0.3,1.6-1,2.8-2.2,3.7c-1.2,0.9-2.8,1.3-4.8,1.3h-9.5l3.2-18.2h9.3c1.6,0,2.9,0.3,3.8,1c0.9,0.6,1.4,1.6,1.4,2.8
			c0,0.3,0,0.6-0.1,1C211.1,213.1,210.6,214,209.9,214.7z M204.5,219.3c0-0.7-0.4-1-1.3-1h-2.6l-0.4,2.6h2.6c0.5,0,0.9-0.1,1.2-0.3
			c0.3-0.2,0.5-0.5,0.5-1C204.5,219.6,204.5,219.4,204.5,219.3z M205.2,212.8c0-0.3-0.1-0.6-0.3-0.7c-0.2-0.2-0.5-0.2-1-0.2h-2.2
			l-0.5,2.6h2.2c0.5,0,0.9-0.1,1.2-0.3c0.3-0.2,0.5-0.5,0.5-1C205.2,213,205.2,212.9,205.2,212.8z"/>
		<path class="st5" d="M219.5,211l-2.6,14.5h-5.7l2.6-14.5H219.5z M214.8,209.2c-0.5-0.4-0.8-1-0.8-1.7c0-0.6,0.2-1.2,0.5-1.7
			c0.3-0.5,0.8-0.9,1.4-1.2c0.6-0.3,1.2-0.5,2-0.5c0.9,0,1.6,0.2,2.1,0.7c0.5,0.4,0.8,1,0.8,1.7c0,0.6-0.2,1.1-0.5,1.6
			c-0.3,0.5-0.8,0.9-1.4,1.2c-0.6,0.3-1.2,0.5-2,0.5C216,209.8,215.3,209.6,214.8,209.2z"/>
		<path class="st5" d="M229.6,211.4c0.6,0.4,1,0.9,1.3,1.6l0.4-2h5.7l-2.5,14.3c-0.2,1.4-0.7,2.6-1.4,3.7c-0.7,1.1-1.7,2-2.9,2.7
			c-1.2,0.7-2.7,1-4.4,1c-2.2,0-3.9-0.5-5.1-1.5s-1.7-2.3-1.7-4.1c0-0.2,0-0.4,0-0.5h5.6c0,0.8,0.6,1.1,1.6,1.1
			c0.7,0,1.2-0.2,1.7-0.5c0.4-0.3,0.7-1,0.9-1.9l0.3-1.7c-0.5,0.7-1.1,1.2-1.9,1.6c-0.8,0.4-1.6,0.6-2.5,0.6c-1.5,0-2.6-0.5-3.5-1.5
			c-0.9-1-1.3-2.3-1.3-4.1c0-0.7,0.1-1.3,0.2-1.9c0.3-1.5,0.8-2.9,1.5-4c0.7-1.1,1.6-2,2.6-2.6c1-0.6,2.1-0.9,3.2-0.9
			C228.2,210.8,229,211,229.6,211.4z M230.1,217.6c0-0.6-0.2-1-0.5-1.4c-0.3-0.3-0.7-0.5-1.3-0.5c-0.6,0-1.2,0.2-1.6,0.6
			c-0.5,0.4-0.8,1-0.9,1.8c0,0.2-0.1,0.4-0.1,0.6c0,0.6,0.2,1,0.5,1.4c0.3,0.3,0.7,0.5,1.3,0.5c0.6,0,1.2-0.2,1.6-0.6
			c0.5-0.4,0.8-1,0.9-1.8C230,218.1,230.1,217.9,230.1,217.6z"/>
		<path class="st5" d="M266.5,207.3l-7.4,18.2H252l-0.3-10.3l-3.9,10.3h-7.1l-1-18.2h6.2l-0.4,11.5l4.5-11.5h6.2l0.4,11.5l3.7-11.5
			H266.5z"/>
		<path class="st5" d="M279.1,212.3c1.1,1,1.7,2.4,1.7,4.2c0,0.5-0.1,1-0.2,1.6c-0.1,0.6-0.2,0.9-0.3,1.1h-9.2c0,0.1,0,0.2,0,0.4
			c0,1,0.4,1.4,1.2,1.4c0.6,0,1.1-0.3,1.5-0.8h6c-0.4,1-1,2-1.8,2.8c-0.8,0.8-1.8,1.5-2.8,1.9c-1.1,0.5-2.2,0.7-3.4,0.7
			c-1.9,0-3.4-0.5-4.6-1.5c-1.1-1-1.7-2.4-1.7-4.3c0-0.5,0.1-1.1,0.2-1.6c0.3-1.5,0.8-2.8,1.6-4c0.8-1.1,1.8-2,3.1-2.6
			c1.2-0.6,2.6-0.9,4-0.9C276.5,210.8,278,211.3,279.1,212.3z M275.1,216.5c0-0.4-0.1-0.7-0.4-0.9c-0.3-0.2-0.6-0.3-1-0.3
			c-1,0-1.7,0.5-2.1,1.6h3.4C275.1,216.8,275.1,216.7,275.1,216.5z"/>
		<path class="st5" d="M290.9,211.4c0.7-0.4,1.6-0.6,2.5-0.6c1.5,0,2.6,0.5,3.5,1.5c0.9,1,1.3,2.3,1.3,4.1c0,0.7-0.1,1.3-0.2,1.9
			c-0.3,1.5-0.8,2.9-1.5,4c-0.7,1.1-1.6,2-2.6,2.6c-1,0.6-2.1,0.9-3.2,0.9c-0.9,0-1.7-0.2-2.3-0.6c-0.6-0.4-1-0.9-1.3-1.6l-0.4,2
			h-5.7l3.4-19h5.7l-1.2,6.5C289.6,212.3,290.2,211.8,290.9,211.4z M292.4,217.6c0-0.6-0.2-1-0.5-1.4c-0.3-0.3-0.7-0.5-1.3-0.5
			c-0.6,0-1.2,0.2-1.6,0.6c-0.5,0.4-0.8,1-0.9,1.8c0,0.2-0.1,0.4-0.1,0.6c0,0.6,0.2,1,0.5,1.4c0.3,0.3,0.7,0.5,1.3,0.5
			c0.6,0,1.2-0.2,1.6-0.6c0.5-0.4,0.8-1,0.9-1.8C292.4,218.1,292.4,217.9,292.4,217.6z"/>
	</g>
</g>
<g>
	<path class="st5" d="M301.9,192.4c1.7,0,3.2,0.6,4.3,1.8c0.6,0.6,1,1.2,1.3,2c0.3,0.7,0.4,1.5,0.4,2.3c0,0.8-0.1,1.6-0.4,2.3
		c-0.3,0.7-0.7,1.4-1.3,1.9c-0.6,0.6-1.3,1-2,1.3c-0.8,0.3-1.5,0.5-2.3,0.5s-1.6-0.2-2.3-0.5c-0.7-0.3-1.4-0.8-2-1.3
		c-0.6-0.6-1-1.2-1.3-2s-0.5-1.5-0.5-2.3c0-0.8,0.2-1.6,0.5-2.3c0.3-0.7,0.8-1.4,1.3-2C298.8,193,300.2,192.4,301.9,192.4z
		 M302,193.5c-1.4,0-2.6,0.5-3.5,1.5c-0.5,0.5-0.8,1-1.1,1.6c-0.3,0.6-0.4,1.2-0.4,1.9c0,0.7,0.1,1.3,0.4,1.9
		c0.3,0.6,0.6,1.1,1.1,1.6c0.5,0.5,1,0.8,1.6,1.1c0.6,0.2,1.2,0.4,1.9,0.4c0.7,0,1.3-0.1,1.9-0.4c0.6-0.3,1.2-0.6,1.7-1.1
		c0.9-0.9,1.4-2.1,1.4-3.5c0-0.7-0.1-1.3-0.4-1.9c-0.2-0.6-0.6-1.1-1.1-1.6C304.5,194,303.3,193.5,302,193.5z"/>
	<path class="st5" d="M303.8,200l-0.2-0.1c-0.4,0.4-0.9,0.7-1.5,0.7c-1.1,0-2-0.9-2-2c0-1.1,0.9-2,2-2c0.6,0,1.1,0.3,1.5,0.7
		l0.2-0.1l1.1-0.7c-0.6-0.8-1.6-1.3-2.7-1.3c-1.9,0-3.5,1.6-3.5,3.5c0,1.9,1.6,3.5,3.5,3.5c1.1,0,2.1-0.5,2.7-1.3L303.8,200z"/>
</g>
</svg>
