<?xml version="1.0" encoding="utf-8"?>
<!-- Generator: Adobe Illustrator 24.1.2, SVG Export Plug-In . SVG Version: 6.00 Build 0)  -->
<svg version="1.1" id="Layer_1" xmlns="http://www.w3.org/2000/svg" xmlns:xlink="http://www.w3.org/1999/xlink" x="0px" y="0px"
	 viewBox="0 0 450 250" style="enable-background:new 0 0 450 250;" xml:space="preserve">
<style type="text/css">
	.st0{fill:url(#SVGID_1_);}
	.st1{fill:#FFFFFF;}
	.st2{fill:#FFCE00;}
</style>
<linearGradient id="SVGID_1_" gradientUnits="userSpaceOnUse" x1="122.2729" y1="240.6218" x2="409.7628" y2="-82.9549">
	<stop  offset="0" style="stop-color:#002EC0"/>
	<stop  offset="4.568338e-02" style="stop-color:#0E2DB8"/>
	<stop  offset="0.4042" style="stop-color:#74247F"/>
	<stop  offset="0.6929" style="stop-color:#BF1E55"/>
	<stop  offset="0.8978" style="stop-color:#ED1A3B"/>
	<stop  offset="1" style="stop-color:#FF1831"/>
</linearGradient>
<rect class="st0" width="450" height="250"/>
<g>
	
		<image style="overflow:visible;opacity:0.75;" width="1355" height="765" xlink:href="BC138C09.png"  transform="matrix(0.24 0 0 0.24 76.3779 62.2183)">
	</image>
	<g>
		<g>
			<polygon class="st1" points="154.6,185.8 154.6,185.8 154.6,185.8 153.3,188.8 154.1,188.8 154.1,188.8 154.1,188.8 154.9,187.4 
				155.8,185.8 155.8,185.8 155.8,185.8 			"/>
			<path class="st1" d="M151.2,184.6c-0.1-0.2-0.3-0.3-0.5-0.3c-0.2,0-0.5,0.1-0.6,0.4c-0.1,0.1-0.1,0.2-0.2,0.4
				c-0.1,0.2-0.1,0.4-0.1,0.7c0,0.3,0.1,0.6,0.2,0.8c0.1,0.1,0.1,0.1,0.2,0.2c0.1,0.1,0.2,0.1,0.3,0.1c0.3,0,0.5-0.1,0.6-0.4
				c0.2-0.3,0.3-0.6,0.3-1.1c0,0,0,0,0,0C151.4,185.1,151.4,184.8,151.2,184.6C151.3,184.6,151.3,184.6,151.2,184.6z"/>
			<path class="st1" d="M357.6,132.9c-22.8-1.1-67.9-8.6-96.4-39.6c-2.8-3-5.7-6.7-7.8-10.6c-0.2-0.5-0.7-0.7-1.1-0.7
				c-0.5,0-0.9,0.2-1.2,0.7c-2.1,3.7-4.6,6.8-7.1,9.7c-1,1.2-1.9,2.3-2.8,3.5c0.2,0.3,0.6,0.8,1.1,0.9c0.5,0.1,0.9-0.2,1.3-0.6
				c0.6-0.6,1.2-1.4,2.1-2.1c0.2-0.1,0.5-0.3,0.8-0.4c0.4-0.1,0.8-0.2,1.2-0.3c0,0,0,0,0,0c0,0,0,0,0,0c0.9-0.1,1.8,0.1,2.5,0.4
				c0.3,0.1,0.6,0.3,0.8,0.5c0.5,0.4,0.8,0.9,1,1.3c1.2,2.2,1.8,3.6,2.3,4.6c0.3,0.5,0.5,0.9,0.6,1.2c0.3,0.5,0.5,0.7,0.9,0.9
				c0.2,0.1,0.4,0.1,0.6,0.2c1.2,0.2,2.3-0.9,3.9-1.1c0.4-0.1,0.8-0.1,1.3,0.1c0.2,0.1,0.4,0.1,0.6,0.2c1.2,0.5,2.2,1.7,3.6,3.7
				c0.2,0.3,0.4,0.6,0.7,0.9c0.9,1.3,1.6,2.4,2.1,3.3c1.1,2,1.6,3,2.4,3c0.3,0,0.6-0.2,0.8-0.4c1.3-1.3,2-4.9,3.5-4.8
				c0.4,0,0.6,0.3,0.8,0.4c0,0.1,0.1,0.1,0.1,0.1c0.2,0.3,0.5,1.1-0.8,3.5c-1.7,3-2.7,4.8-4.1,5c-4,0.4-7.6-13-11.6-12.4
				c0,0,0,0,0,0c0,0,0,0,0,0c0,0-0.1,0-0.1,0c-1.3,0.3-2.2,1.8-4.1,1.5c-0.5-0.1-0.9-0.2-1.2-0.4c-0.3-0.2-0.5-0.3-0.7-0.5
				c-0.3-0.2-0.6-0.5-0.8-0.7c-0.6-0.6-1-1.3-1.4-1.9c-0.5-1-0.8-1.9-0.9-2.1c-0.4-1.4-0.3-2.3-1-3c-0.1-0.1-0.1-0.1-0.1-0.2
				c-0.1-0.1-0.4-0.3-0.8-0.4c-0.2-0.1-0.4-0.1-0.6-0.1c-1,0-1.4,0.8-2.4,1.7c-0.3,0.3-0.7,0.5-1.2,0.8c-0.5,0.3-1.5,0.7-2.6,0.5
				c-0.1,0-0.2-0.1-0.4-0.1c-1.1-0.3-1.8-0.9-2.1-1.3c0,0,0,0,0,0c0,0,0,0,0,0c-2.1,2-4.1,4-6.2,5.9c-2.7,2.6-5.5,5.3-8.2,7.9
				c0.3,0.4,0.8,0.8,1.2,1.3c0.7,0.7,1.5,1.5,2.5,2.3c10.6,9.1,23.4,11,41.4,12.5c4.2,0.4,8.1,0.6,11.6,0.9c11.1,0.8,18.4,1,18.4,1
				c7.7,0.2,19.2,1,32,1.9C340.4,132,349.1,132.6,357.6,132.9c-0.2,0-0.4,0-0.5,0C357.2,132.9,357.4,132.9,357.6,132.9z"/>
			<g>
				<g>
					<path class="st1" d="M164.9,107c0.4,0.2,0.8,0.4,1.2,0.5c0.1,0,0.2,0.1,0.3,0.1c1.3-1.1,2.6-2.3,3.9-3.5c1.1-1,2.2-2.1,3.3-3.3
						c1.2-1.3,2.4-2.6,3.4-3.8c0,0,0,0,0,0c1.1-1.3,2-2.5,2.9-3.7c0,0,0,0,0,0c-0.1-0.1-0.1-0.3-0.2-0.4c-0.8-2-2.2-3.7-4-4.9
						c-1.8-1.2-3.9-1.9-6.2-1.9c-3.7,0-7,1.8-9,4.7c-1.3,1.8-2,4-2,6.3C158.7,101.5,161.2,105.2,164.9,107z"/>
				</g>
				<g>
					<path class="st2" d="M164.9,107c0.4,0.2,0.8,0.4,1.2,0.5c0.1,0,0.2,0.1,0.3,0.1c1.3-1.1,2.6-2.3,3.9-3.5c1.1-1,2.2-2.1,3.3-3.3
						c1.2-1.3,2.4-2.6,3.4-3.8c0,0,0,0,0,0c1.1-1.3,2-2.5,2.9-3.7c0,0,0,0,0,0c-0.1-0.1-0.1-0.3-0.2-0.4c-0.8-2-2.2-3.7-4-4.9
						c-1.8-1.2-3.9-1.9-6.2-1.9c-3.7,0-7,1.8-9,4.7c-1.3,1.8-2,4-2,6.3C158.7,101.5,161.2,105.2,164.9,107z"/>
				</g>
			</g>
			<path class="st1" d="M160.9,194.6c0-0.2,0.1-0.3,0.1-0.5l0.1-0.5c0.4-1.6,0.7-2.6,0.7-3c0-0.2,0-0.3-0.1-0.5c0,0,0,0,0-0.1
				c0-0.1-0.1-0.2-0.1-0.3c-0.1-0.1-0.1-0.2-0.2-0.2c-0.1,0-0.2-0.1-0.3-0.1c-0.2,0-0.5,0.1-0.7,0.3c-0.2,0.2-0.5,0.4-0.7,0.7
				c-0.4,0.6-0.9,1.5-1.4,2.7c-0.1,0.1-0.1,0.3-0.2,0.4c0.1-0.4,0.2-0.9,0.3-1.3c0.1-0.4,0.2-0.8,0.3-1.2c0-0.2,0.1-0.3,0.1-0.4
				c0.2-0.6,0.2-1,0.2-1c0-0.1-0.1-0.2-0.2-0.3c-0.1,0-0.3-0.1-0.6-0.1c-0.3,0-0.6,0.5-0.7,1.6c0,0.4-0.1,0.7-0.2,1c0,0,0,0.1,0,0.1
				c-0.1,0.3-0.1,0.6-0.2,0.9c-0.2,1-0.4,1.7-0.6,2.2c0,0.1-0.1,0.2-0.2,0.3c-0.1,0.3-0.3,0.4-0.4,0.6c-0.2,0.2-0.4,0.2-0.6,0.3
				l-0.2,1.2c0.3,0,0.5-0.1,0.8-0.2c0.2-0.1,0.4-0.3,0.6-0.6c0,0.1-0.1,0.3-0.1,0.3c0,0,0,0,0,0c0,0.1,0,0.1,0,0.2
				c0,0.1,0,0.1,0.1,0.2c0,0,0,0,0,0.1c0.1,0,0.2,0.1,0.3,0.1c0.5,0,0.8-0.3,0.9-1c0.1-0.3,0.2-0.6,0.2-0.9c0.2-0.8,0.5-1.4,0.7-2
				c0.2-0.4,0.3-0.7,0.5-1c0.2-0.3,0.3-0.6,0.5-0.8c0.1-0.2,0.3-0.3,0.4-0.4c0.1,0,0.1-0.1,0.2-0.1c0.1,0,0.1,0,0.1,0c0,0,0,0,0,0
				c0,0,0.1,0.1,0.1,0.2c0,0.1-0.1,0.5-0.3,1.2l0,0.2c-0.2,0.8-0.4,1.4-0.5,1.9c0,0.1,0,0.2-0.1,0.4c-0.1,0.3-0.1,0.6-0.1,0.8
				c0,0.5,0.2,0.9,0.4,1.2c0.3,0.3,0.7,0.4,1.4,0.4h0.1l0,0h0l0-0.2l0.2-1c-0.1,0-0.1,0-0.1,0c-0.2,0-0.4-0.1-0.5-0.1
				c-0.1-0.1-0.2-0.2-0.2-0.4c0-0.1,0-0.3,0.1-0.6C160.8,195,160.8,194.8,160.9,194.6z"/>
			<path class="st1" d="M248.5,127.5c-9.6-2.8-16.2-6.8-20.4-9.9c-4.8-3.5-8.3-7.1-25.3-28c-3.8-4.7-7-8.6-9.3-11.5
				c-5.5,7.3-11,14.6-16.5,21.8c0.6,0,1.5,0,2.5,0.4c1.4,0.4,1.9,1.1,3.2,1.5c1.1,0.4,2,0.4,3.2,0.4c6.7-0.1,7.8-1.2,10.1-0.2
				c2.3,0.9,2.5,2.4,4,2.2c1.6-0.2,1.7-2.1,4.3-3.1c0.6-0.2,1.8-0.6,3.1-0.3c0.4,0.1,1.3,0.4,1.5,1c0.1,0.6-0.3,1.2-0.8,1.5
				c-0.7,0.4-1.2,0-2.1,0.1c-1.1,0.2-1.3,1.2-2.5,2.1c-1.2,1-3.1,1.7-4.8,1.3c-1.5-0.3-1.5-1.3-3.2-1.9c-1.4-0.6-2.6-0.4-3.9-0.2
				c-1.6,0.1-6.9,0.6-11-1.1c-0.4-0.2-0.8-0.4-1.4-0.7c-1.7-1-3.8-0.7-5.2,0.7c-4.3,4.4-9.4,9.1-15.6,13.7
				c-7.4,5.5-14.4,9.6-20.4,12.7C174.9,129.3,211.7,128.4,248.5,127.5z"/>
			<path class="st1" d="M133.4,191.6c0-0.6-0.1-1-0.2-1.3c-0.1-0.3-0.3-0.5-0.6-0.5c-0.2,0-0.4,0.1-0.6,0.4c-0.1,0.3-0.2,0.6-0.2,1
				c0,0.3,0,0.5,0.1,0.7c0.1,0.2,0.2,0.3,0.4,0.3c0,1.1-0.2,2-0.6,2.8c-0.4,0.8-0.8,1.3-1.1,1.3c-0.2,0-0.3-0.1-0.4-0.3
				c-0.1-0.2-0.1-0.4-0.1-0.7c0-0.7,0.1-1.4,0.3-2.1c0.2-0.8,0.5-1.5,0.9-2.2c0.1-0.2,0.2-0.4,0.4-0.7c0.2-0.3,0.3-0.5,0.3-0.6
				c0-0.1,0-0.2-0.1-0.2c-0.1-0.1-0.1-0.1-0.2-0.1c-0.3,0-0.7,0.1-1,0.4c-0.4,0.3-0.7,0.7-0.9,1.1c-0.3,0.5-0.5,1.1-0.7,1.8
				c-0.2,0.7-0.3,1.3-0.3,1.9c0,0.2,0,0.5,0,0.7c0,0.2,0.1,0.4,0.1,0.6c-0.1,0.1-0.3,0.2-0.5,0.3c-0.2,0.1-0.3,0.1-0.5,0.1h0H128
				c-0.2,0-0.3,0-0.4,0c-0.1,0-0.2-0.1-0.3-0.2c0.2-0.3,0.3-0.6,0.4-1.1c0.1-0.4,0.2-0.9,0.2-1.3c0-0.5-0.1-1-0.2-1.4
				c-0.2-0.5-0.4-1-0.7-1.5c0.2-0.2,0.3-0.5,0.4-0.7c0.1-0.2,0.1-0.5,0.1-0.7c0-0.3-0.1-0.5-0.2-0.6c-0.1-0.2-0.3-0.2-0.5-0.2
				c-0.3,0-0.6,0.2-0.8,0.5c-0.2,0.3-0.3,0.7-0.3,1.1c0,0.2,0,0.3,0.1,0.5c0,0.1,0.1,0.3,0.2,0.4c-0.6,1.6-1.2,2.9-1.8,3.8
				c-0.6,1-1.1,1.5-1.4,1.5l-0.2,1.2c0.2-0.1,0.5-0.1,0.7-0.3c0.2-0.1,0.4-0.3,0.6-0.5c0.2,0.3,0.4,0.5,0.7,0.6
				c0.3,0.1,0.5,0.2,0.8,0.2c0.2,0,0.4,0,0.6-0.1c0.2-0.1,0.4-0.2,0.7-0.3c0.2,0.1,0.4,0.2,0.6,0.3c0.2,0.1,0.4,0.1,0.6,0.1h0.1h0
				c0.3,0,0.6-0.1,0.9-0.2c0.3-0.1,0.5-0.2,0.8-0.4c0.1,0.2,0.3,0.4,0.5,0.5c0.2,0.1,0.4,0.1,0.7,0.1c0.4,0,0.7-0.1,1-0.5
				c0.3-0.3,0.6-0.8,0.9-1.4c0.3-0.6,0.5-1.2,0.6-1.9C133.4,193,133.4,192.3,133.4,191.6z M126.1,195.5c-0.2,0.4-0.5,0.7-0.8,0.8
				c-0.1-0.2-0.2-0.5-0.3-0.6c-0.1-0.2-0.2-0.3-0.4-0.4c0.4-0.5,0.7-1.1,0.9-1.7c0.3-0.5,0.5-1.1,0.6-1.6c0.1,0.4,0.1,0.7,0.2,1
				c0,0.3,0.1,0.6,0.1,0.8C126.5,194.6,126.3,195.1,126.1,195.5z"/>
			<path class="st1" d="M102.2,121.8C102.2,121.9,102.2,121.9,102.2,121.8c13.8,1,27.5,2,41.3,3c1.6-1.1,3.2-2.2,4.7-3.4
				c0,0,0,0,0,0c0,0,0,0,0,0c-2.1-0.5-4.5-1.2-7.1-2.2c-3.4-1.4-6.3-3.3-8.7-5.1c-0.6-0.4-1.2-0.9-1.7-1.3c-0.2-0.1-0.4-0.2-0.6-0.3
				c-0.6-0.2-1.3,0-1.8,0.4c-0.4,0.4-0.9,0.9-1.3,1.3c-0.2,0.2-0.4,0.4-0.7,0.5c-0.5,0.3-0.8,0.6-1.2,0.8c-1.1,0.8-1.6,0.9-2.1,0.8
				c-1-0.2-0.9-1.1-2.2-1.8c-1.3-0.7-3.5-1.1-4.6-0.2c-0.1,0.1-0.2,0.2-0.3,0.3c-0.3,0.2-0.6,0.4-1,0.5c0,0-0.1,0-0.1,0
				c-0.2,0-0.6,0.1-0.8-0.1c0,0,0,0,0,0c-0.1,0-0.1-0.1-0.1-0.1c-0.3-0.3-0.3-0.8-0.3-1.3c0-0.1,0-0.3,0.1-0.4
				c0.1-0.2,0.2-0.4,0.3-0.5c0.5-0.7,1.2-1.1,1.9-1.3c0.5-0.2,0.9-0.2,1-0.3c1.4-0.3,2.6,0.1,3.4,0.4c0.2,0.1,0.4,0.1,0.5,0.2
				c1.7,0.7,1.9,1.4,3,1.3c0.1,0,0.2,0,0.5-0.2c0.3-0.1,0.9-0.4,2.1-1c0.6-0.3,1-0.5,1.4-0.7c0,0,0,0,0,0c0,0,0,0,0,0
				c-1-0.8-2-1.5-3-2.3c-1.5-1.1-3-2.2-4.5-3.5c-0.1-0.1-0.2-0.1-0.2-0.1c-0.4-0.2-0.8-0.4-1.1-0.3c-0.5,0.1-0.9,0.3-1.2,0.8
				c-1.7,2.8-4.7,6.1-8.1,10.6c-0.8,1.1-1.8,2-2.7,2.7C105.2,120.2,103.5,121.1,102.2,121.8C102.2,121.8,102.2,121.8,102.2,121.8z"
				/>
			<path class="st1" d="M119.3,189.3c-0.1,0-0.2,0-0.2,0.1c-0.1,0.1-0.1,0.2-0.2,0.4l-0.1,0.4c-0.2-0.2-0.3-0.4-0.5-0.5
				c-0.2-0.1-0.4-0.2-0.6-0.2c-0.5,0-1,0.2-1.4,0.6c-0.5,0.4-0.9,1.1-1.3,1.9c-0.2,0.5-0.4,1.1-0.6,1.6s-0.2,1.1-0.2,1.6
				c0,0.1,0,0.3,0,0.4c0,0.1,0,0.3,0,0.4c-0.1,0.1-0.3,0.2-0.4,0.3c-0.2,0.1-0.3,0.1-0.5,0.1h0c-0.3,0-0.5-0.1-0.6-0.2
				c-0.1-0.1-0.2-0.2-0.2-0.4c0-0.1,0-0.3,0.1-0.6c0.1-0.3,0.1-0.6,0.2-1l0.2-0.5c0.4-1.6,0.7-2.6,0.7-3c0-0.3-0.1-0.6-0.2-0.8
				c-0.1-0.2-0.3-0.3-0.6-0.3c-0.5,0-1,0.3-1.4,1c-0.5,0.7-1,1.7-1.6,3.1c0.2-0.8,0.4-1.7,0.6-2.5c0.2-0.9,0.4-1.4,0.4-1.5
				c0-0.1-0.1-0.2-0.2-0.3c-0.1,0-0.3-0.1-0.6-0.1c-0.3,0-0.6,0.5-0.7,1.6c-0.1,0.8-0.2,1.5-0.3,2c-0.2,1.2-0.5,2-0.8,2.6
				c-0.3,0.5-0.6,0.8-1,0.8h0c-0.4,0-0.6-0.1-0.8-0.2c-0.2-0.1-0.3-0.3-0.3-0.6c0-0.3,0-0.7,0.1-1.2c0.1-0.5,0.2-1.2,0.3-2.1
				l1.1-6.5c0-0.1,0-0.2,0.1-0.4c0-0.2,0.1-0.4,0.1-0.5c0-0.2-0.1-0.3-0.2-0.4c-0.2-0.1-0.4-0.2-0.8-0.2c-0.2,0-0.4,0.3-0.5,0.8
				c0,0,0,0.1,0,0.1c-0.1,0.6-0.3,1.3-0.5,2c-0.2,0.7-0.4,1.5-0.6,2.1c-0.6,1.9-1.3,3.4-1.9,4.6c-0.7,1.2-1.2,1.8-1.5,1.8
				c-0.1,0-0.2,0-0.2-0.1c0-0.1-0.1-0.1-0.1-0.3c0-0.1,0-0.2,0-0.4c0-0.2,0.1-0.4,0.1-0.6l1.2-5c0.1-0.6,0.2-1.1,0.3-1.5
				c0.1-0.4,0.1-0.8,0.1-1c0-0.8-0.2-1.4-0.5-1.8c-0.3-0.5-0.8-0.7-1.3-0.7c-0.9,0-1.6,0.5-2.2,1.4c-0.6,0.9-0.9,2-0.9,3.3
				c0,0.6,0.1,1.1,0.3,1.4c0.2,0.4,0.4,0.5,0.7,0.5c0.1,0,0.3,0,0.4-0.1c0.1-0.1,0.1-0.2,0.2-0.3c-0.1-0.1-0.2-0.2-0.2-0.4
				c0-0.2-0.1-0.4-0.1-0.7c0-0.9,0.2-1.7,0.5-2.3c0.3-0.7,0.7-1,1.2-1c0.2,0,0.4,0.1,0.6,0.3c0.1,0.2,0.2,0.4,0.2,0.7
				c0,0.3-0.1,1.1-0.4,2.2l0,0.1l-1,4.2c0,0.1-0.1,0.3-0.1,0.6c-0.2,1-0.4,1.7-0.4,2c0,0.5,0.1,0.9,0.3,1.1c0.2,0.3,0.5,0.4,0.8,0.4
				c0.8,0,1.5-0.5,2.1-1.4c0.6-0.9,1.5-2.8,2.5-5.5c-0.3,1.4-0.5,2.5-0.7,3.2c-0.1,0.7-0.2,1.3-0.2,1.7c0,0.7,0.2,1.2,0.5,1.5
				c0.4,0.3,0.9,0.5,1.7,0.5c0,0,0,0,0,0c0.3,0,0.5-0.1,0.7-0.2c0.2-0.1,0.4-0.3,0.6-0.6c0,0.1-0.1,0.3-0.1,0.4c0,0.1,0,0.2,0,0.2
				c0,0.1,0,0.2,0.1,0.2c0.1,0,0.2,0.1,0.3,0.1c0.5,0,0.8-0.3,0.9-1c0.1-0.4,0.2-0.7,0.2-0.9c0.4-1.2,0.8-2.2,1.2-3.1
				c0.5-0.9,0.8-1.3,1-1.3c0.1,0,0.1,0,0.2,0.1c0,0,0,0.1,0,0.2c0,0.1-0.1,0.5-0.3,1.2l0,0.2c-0.2,0.8-0.4,1.4-0.5,1.9
				c-0.1,0.5-0.2,0.9-0.2,1.1c0,0.5,0.2,0.9,0.4,1.2c0.3,0.3,0.7,0.4,1.4,0.4h0.1c0,0,0,0,0,0c0.3,0,0.6-0.1,0.8-0.2
				c0.3-0.1,0.5-0.2,0.7-0.3c0.1,0.2,0.2,0.3,0.4,0.4c0.2,0.1,0.3,0.1,0.6,0.1c0.5,0,0.9-0.2,1.3-0.7c0.4-0.5,0.8-1.3,1.2-2.4
				c-0.1,0.5-0.2,0.8-0.2,1.1c-0.1,0.3-0.1,0.5-0.1,0.7c0,0.4,0.1,0.8,0.4,1c0.3,0.2,0.7,0.3,1.3,0.3h0.1l0.2-1.1
				c-0.3-0.1-0.5-0.1-0.6-0.2c-0.1-0.1-0.1-0.3-0.1-0.5c0-0.3,0.1-0.8,0.2-1.4c0.1-0.6,0.3-1.3,0.6-2.2c0.1-0.4,0.3-0.9,0.4-1.4
				c0.2-0.5,0.2-0.7,0.2-0.8c0-0.2-0.1-0.3-0.3-0.5C119.8,189.3,119.6,189.3,119.3,189.3z M117.2,194.9c-0.5,0.8-0.9,1.2-1.2,1.2
				c-0.1,0-0.2-0.1-0.3-0.2c-0.1-0.1-0.1-0.3-0.1-0.6c0-0.4,0.1-0.8,0.2-1.4c0.1-0.5,0.3-1,0.6-1.5c0.3-0.5,0.5-0.9,0.8-1.2
				c0.3-0.3,0.5-0.4,0.8-0.4c0.1,0,0.2,0,0.3,0.1c0.1,0.1,0.2,0.2,0.3,0.3C118.1,192.8,117.7,194,117.2,194.9z"/>
			<path class="st1" d="M155.4,193.8c0,0,0-0.1,0-0.1c0,0,0-0.1,0-0.1c0.1-0.6,0.2-1.3,0.2-1.9c0,0,0-0.1,0-0.1c0-0.4,0-0.7-0.1-0.9
				c0-0.1-0.1-0.2-0.1-0.3c-0.1-0.3-0.3-0.5-0.6-0.5c-0.1,0-0.3,0.1-0.4,0.2c-0.1,0.1-0.1,0.1-0.2,0.2c0,0,0,0,0,0
				c-0.1,0.3-0.2,0.6-0.2,0.9c0,0.1,0,0.2,0.1,0.3c0,0.1,0,0.3,0.1,0.4c0,0,0,0,0,0c0,0,0,0,0,0c0.1,0.1,0.2,0.1,0.3,0.2
				c0.1,0,0.1,0.1,0.1,0.1c0,0.3-0.1,0.7-0.1,1c-0.1,0.4-0.1,0.8-0.2,1.1c-0.1,0.2-0.1,0.5-0.2,0.7c0,0.1-0.1,0.1-0.1,0.2
				c-0.3,0.7-0.7,1.1-1,1.1c-0.1,0-0.2,0-0.2-0.1c-0.1,0-0.1-0.1-0.2-0.2c0,0,0,0,0,0c-0.1-0.2-0.1-0.4-0.1-0.7
				c0-0.4,0.1-0.8,0.1-1.3c0.1-0.3,0.1-0.6,0.2-0.8c0.1-0.4,0.2-0.7,0.4-1.1c0,0,0,0,0,0c0,0,0,0,0,0c0.1-0.4,0.3-0.7,0.5-1.1
				c0.1-0.1,0.2-0.3,0.3-0.5c0.1-0.1,0.1-0.1,0.1-0.2c0.2-0.3,0.3-0.5,0.3-0.6c0-0.1,0-0.1-0.1-0.2c0,0,0,0,0-0.1
				c0-0.1-0.1-0.1-0.2-0.1c-0.2,0-0.3,0-0.5,0.1c-0.2,0.1-0.3,0.2-0.5,0.3c-0.1,0.1-0.3,0.3-0.4,0.4c-0.1,0.1-0.1,0.2-0.2,0.3
				c-0.1,0.1-0.2,0.3-0.3,0.5c-0.3,0.5-0.5,1.1-0.7,1.8c-0.2,0.7-0.3,1.3-0.3,1.9c0,0,0,0.1,0,0.1c0,0.2,0,0.4,0,0.6
				c0,0.2,0.1,0.4,0.1,0.6c-0.1,0.1-0.3,0.2-0.4,0.3c-0.2,0.1-0.4,0.1-0.6,0.1c-0.1,0-0.1,0-0.2,0c-0.2,0-0.4-0.1-0.5-0.2
				c-0.1-0.1-0.2-0.3-0.2-0.5c0-0.1,0-0.3,0.1-0.6c0-0.2,0.1-0.4,0.1-0.6l0-0.1l0.4-1.8l0.1-0.7c0-0.1,0-0.2,0.1-0.2
				c0.1-0.2,0.1-0.5,0.2-0.9c0.1-0.5,0.2-0.8,0.2-1c0,0,0,0,0,0c0,0,0,0,0,0c0-0.1,0-0.1-0.1-0.2c0,0,0-0.1-0.1-0.1c0,0-0.1,0-0.1,0
				c-0.1,0-0.1-0.1-0.2-0.1c-0.6,0-1,0.4-1.1,1.2c0,0,0,0.1,0,0.1c0,0.1,0,0.1,0,0.2c0,0.3-0.1,0.6-0.1,0.8c-0.2,1.3-0.5,2.3-0.7,3
				c-0.1,0.2-0.1,0.4-0.2,0.5c-0.2,0.4-0.3,0.6-0.5,0.8c-0.2,0.2-0.3,0.2-0.5,0.3c0,0-0.1,0-0.1,0h0c-0.7,0-1.3-0.2-1.6-0.6
				c-0.1-0.1-0.1-0.2-0.2-0.3c-0.1-0.1-0.2-0.2-0.2-0.4c0,0,0,0,0,0c-0.1-0.3-0.1-0.6-0.1-1c0-0.3,0-0.7,0.1-1c0-0.1,0-0.2,0.1-0.3
				c0.1-0.3,0.2-0.6,0.3-0.8c0.3-0.6,0.6-0.9,1-0.9c0.2,0,0.3,0.1,0.4,0.2c0,0,0,0,0,0c0.1,0.1,0.1,0.3,0.1,0.5c0,0,0,0,0,0
				c0,0.1,0,0.2,0,0.2c0,0,0.1,0,0.1,0c0.1,0,0.3-0.1,0.4-0.2c0,0,0,0,0.1-0.1c0.1-0.2,0.2-0.4,0.2-0.7c0,0,0,0,0,0c0,0,0,0,0,0
				c0,0,0,0,0,0c0-0.3-0.1-0.5-0.2-0.7c-0.1-0.1-0.1-0.2-0.2-0.3c0,0,0,0,0,0c0,0,0,0,0,0c-0.2-0.3-0.5-0.4-0.9-0.4
				c-0.7,0-1.3,0.4-1.9,1.2c0,0.1-0.1,0.1-0.1,0.1c0,0,0,0,0,0c0,0,0,0,0,0c0,0,0,0,0,0c-0.6,0.9-0.9,2-0.9,3.2c0,0,0,0,0,0
				c0,0.4,0,0.7,0.1,1c0,0,0,0,0,0c0,0.3,0.1,0.5,0.2,0.8c-0.2,0.2-0.4,0.3-0.6,0.4c-0.2,0.1-0.4,0.1-0.6,0.2h0
				c-0.3,0-0.5-0.1-0.6-0.2c-0.1-0.1-0.2-0.3-0.2-0.6c0-0.3,0-0.7,0.1-1.2c0.1-0.5,0.2-1.1,0.4-1.8c0.1-0.5,0.3-1.1,0.5-1.6
				c0.2-0.6,0.3-0.9,0.3-1c0-0.2-0.1-0.3-0.3-0.5c-0.2-0.1-0.4-0.2-0.7-0.2s-0.5,0.4-0.6,1.2c-0.1,0.8-0.3,1.5-0.5,2
				c-0.3,1.1-0.6,1.9-0.9,2.5c-0.3,0.6-0.6,0.9-0.9,0.9c-0.1,0-0.2,0-0.3-0.1c-0.1-0.1-0.1-0.2-0.1-0.4c0-0.2,0-0.6,0.1-1
				s0.3-1.1,0.5-1.9c0.1-0.5,0.3-1.1,0.5-1.6c0.2-0.6,0.3-0.9,0.3-0.9c0-0.2-0.1-0.3-0.4-0.5c-0.3-0.1-0.5-0.2-0.8-0.2
				c-0.2,0-0.4,0.5-0.6,1.4c-0.1,0.3-0.1,0.5-0.2,0.7c0,0.2-0.1,0.4-0.2,0.7c-0.4,1.7-0.6,2.9-0.6,3.4v0.2c0,0,0,0.1,0,0.1
				c-0.2,0.2-0.4,0.3-0.6,0.4c-0.2,0.1-0.4,0.1-0.6,0.2h0c-0.2,0-0.4-0.1-0.5-0.2c-0.1-0.1-0.2-0.4-0.2-0.7c0-0.4,0.1-1.2,0.3-2.3
				c0.2-1.2,0.4-2.4,0.7-3.8c0.4-0.7,0.7-1.4,0.9-2.1c0.2-0.7,0.3-1.2,0.3-1.7c0-0.4-0.1-0.7-0.2-0.9c-0.1-0.2-0.3-0.3-0.5-0.3
				c-0.3,0-0.5,0.2-0.8,0.6c-0.2,0.4-0.4,1.2-0.7,2.3c-0.3,1.4-0.6,2.7-0.8,4.1c-0.2,1.4-0.4,2.7-0.5,4c-0.3,0.4-0.5,0.6-0.8,0.8
				c-0.2,0.2-0.4,0.3-0.6,0.3l-0.2,1.2c0.3,0,0.6-0.1,0.9-0.3c0.3-0.2,0.5-0.5,0.8-0.8c0.1,0.4,0.2,0.7,0.5,0.8
				c0.2,0.2,0.6,0.3,1,0.3h0.1h0c0,0,0,0,0,0c0.3-0.1,0.6-0.1,0.8-0.2c0.2-0.1,0.5-0.3,0.7-0.5c0.1,0.3,0.2,0.4,0.3,0.6
				c0.2,0.1,0.4,0.2,0.6,0.2c0.4,0,0.7-0.2,1-0.6c0.3-0.4,0.8-1.3,1.3-2.5c-0.1,0.5-0.2,0.8-0.2,1.1c0,0.3-0.1,0.5-0.1,0.7
				c0,0.5,0.1,0.8,0.3,1c0.2,0.2,0.6,0.3,1.1,0.3h0.1h0c0.4,0,0.7-0.1,1-0.2c0,0,0,0,0,0c0,0,0,0,0,0c0.3-0.1,0.6-0.4,0.9-0.6
				c0.2,0.3,0.6,0.5,1,0.7c0.1,0,0.2,0.1,0.3,0.1c0.3,0.1,0.6,0.1,1,0.1h0c0,0,0.1,0,0.1,0c0,0,0,0,0,0h0c0.1,0,0.2,0,0.3-0.1
				c0.2-0.1,0.4-0.1,0.5-0.3c0.3-0.2,0.5-0.5,0.7-0.9c0.1,0.4,0.2,0.7,0.4,0.9c0,0,0,0,0,0c0,0,0,0,0,0c0.1,0.1,0.3,0.2,0.5,0.2
				c0.2,0,0.4,0.1,0.6,0.1h0.2c0,0,0,0,0,0c0.3,0,0.5-0.1,0.8-0.2c0,0,0.1,0,0.1,0c0.3-0.1,0.5-0.2,0.8-0.4c0,0.1,0.1,0.1,0.2,0.2
				c0.1,0.1,0.2,0.2,0.3,0.3c0.1,0.1,0.3,0.1,0.4,0.1c0.1,0,0.2,0.1,0.3,0.1c0.4,0,0.7-0.2,1-0.5c0.1-0.1,0.1-0.2,0.2-0.3
				c0.2-0.3,0.5-0.7,0.7-1.2C155,195.1,155.2,194.5,155.4,193.8z"/>
			<polygon class="st1" points="244.9,152.5 244.9,152.5 244.9,152.5 244.9,147 244.9,147 244.9,147 235.6,147 230.4,147.6 
				229,147.8 229,171.3 229,171.3 229,171.3 235.6,171.3 235.6,171.3 235.6,171.3 235.6,161.8 241.8,161.8 241.8,161.8 241.8,161.8 
				241.8,157.7 241.8,157.7 241.8,157.7 235.6,157.7 235.6,152.5 			"/>
			<polygon class="st1" points="253.4,171.2 253.4,171.2 253.4,171.2 253.4,146.9 249.8,147.4 246.8,147.8 246.8,147.8 246.8,147.8 
				246.8,171.2 246.8,171.2 246.8,171.2 			"/>
			<path class="st1" d="M99.7,165.9c-0.3,0-0.7,0-1.2-0.2c-1.3-0.3-2.7-0.9-4.1-1.7l-1.7,5.6c2.6,1.1,5.1,1.6,7.4,1.6h0.7
				c2.5-0.1,4.6-0.7,6.2-1.7c1.6-1.1,2.4-2.4,2.6-3.9v-0.2c0-1-0.3-2-0.8-2.9c-0.6-1-1.3-1.8-2.2-2.6c-0.9-0.8-1.8-1.6-2.7-2.3
				c-1.2-1-2.1-1.7-2.6-2.4c-0.5-0.6-0.8-1.1-0.8-1.5c0-0.4,0.1-0.7,0.4-1c0.4-0.4,0.9-0.5,1.7-0.5h0.1c0.9,0,1.8,0.1,2.7,0.4
				c1,0.3,1.8,0.6,2.6,1.1l2.7-5.1c-3.2-1.1-6-1.6-8.4-1.6c-2.4,0-4.5,0.4-6.1,1.2c-1.6,0.8-2.7,1.8-3.3,3c-0.3,0.8-0.5,1.5-0.5,2.2
				c0,0.6,0.1,1.2,0.3,1.7c0.5,1.2,1.3,2.4,2.3,3.4c1.1,1.1,2.1,2,3.2,2.9c1.1,0.8,1.8,1.5,2.3,2.1c0.5,0.6,0.8,1,0.8,1.4
				c0,0.2,0,0.3-0.1,0.5C100.9,165.7,100.4,165.9,99.7,165.9z"/>
			<polygon class="st1" points="128.6,152.5 128.6,147 119.2,147 112.5,147.8 112.5,171.3 128.6,171.3 128.6,165.7 119.2,165.7 
				119.2,161.8 125.5,161.8 125.5,157.7 119.2,157.7 119.2,152.5 			"/>
			<path class="st1" d="M147.5,159.1c1-1.2,1.5-2.6,1.5-4.1s-0.5-2.8-1.5-4.1c-1-1.2-2.4-2.2-4.1-2.9c-1.7-0.7-3.6-1.1-5.7-1.1H137
				l-6.6,0.8v23.5h6.6v-8.1l4.6,8.1h7l-5.1-9.2C145.2,161.3,146.5,160.3,147.5,159.1z M141.5,157.2c-0.4,0.7-1,1.2-1.7,1.6
				c-0.7,0.4-1.4,0.6-2.2,0.6c-0.2,0-0.4,0-0.6,0v-8.6c0.2,0,0.4,0,0.6,0c0.8,0,1.5,0.2,2.2,0.6c0.7,0.4,1.3,0.9,1.7,1.6
				c0.4,0.7,0.7,1.4,0.7,2.2C142.2,155.8,142,156.6,141.5,157.2z"/>
			<polygon class="st1" points="157.5,146.9 150.9,147.8 150.9,171.2 157.5,171.2 			"/>
			<path class="st1" d="M171.5,171.2c2.1,0,4.1-0.5,5.9-1.5v1.5h5.3v-12.8l-9.1,1.5l0,3.6l2.5,0.1c-0.5,1.1-1.2,1.9-1.9,2.6
				c-0.8,0.7-1.7,1-2.6,1c-1,0-1.9-0.4-2.8-1.1c-0.8-0.7-1.5-1.7-2-2.9c-0.5-1.2-0.7-2.6-0.7-4c0-1.5,0.2-2.8,0.7-4
				c0.5-1.2,1.2-2.2,2-2.9c0.8-0.7,1.7-1.1,2.8-1.1c1.1,0,2,0.4,2.9,1.2c0.9,0.8,1.5,1.8,2,3.1l6.3-1c-0.6-1.5-1.5-2.8-2.6-3.9
				c-1.1-1.1-2.4-2-3.9-2.6c-1.5-0.6-3-1-4.7-1c-2.2,0-4.3,0.5-6.1,1.6c-1.8,1.1-3.3,2.6-4.4,4.4c-1.1,1.8-1.7,3.9-1.7,6.1
				c0,2.2,0.6,4.3,1.7,6.1c1.1,1.8,2.5,3.3,4.4,4.4C167.2,170.7,169.3,171.2,171.5,171.2z"/>
			<path class="st1" d="M202.8,171.3l-5.1-9.2c1.7-0.7,3-1.7,4-2.9c1-1.2,1.5-2.6,1.5-4.1s-0.5-2.8-1.5-4.1c-1-1.2-2.4-2.2-4.1-2.9
				c-1.7-0.7-3.6-1.1-5.7-1.1h-0.6l-6.6,0.8v23.5h6.6v-8.1l4.6,8.1H202.8z M194,158.8c-0.7,0.4-1.4,0.6-2.2,0.6c-0.2,0-0.4,0-0.6,0
				v-8.6c0.2,0,0.4,0,0.6,0c0.8,0,1.5,0.2,2.2,0.6c0.7,0.4,1.3,0.9,1.7,1.6c0.4,0.7,0.7,1.4,0.7,2.2c0,0.8-0.2,1.5-0.7,2.2
				C195.2,157.9,194.7,158.5,194,158.8z"/>
			<path class="st1" d="M219.3,147l-6.9,1.1l-7.4,23.2h6.6l1.3-4.1h6.2l1.3,4.1h6.6L219.3,147z M214.2,163.1l1.8-5.7l1.8,5.7H214.2z
				"/>
			<path class="st1" d="M263.2,167.2h6.2l1.3,4.1h6.6l-7.7-24.3l-6.9,1.1l-7.4,23.2h6.6L263.2,167.2z M266.4,157.4l1.8,5.7h-3.6
				L266.4,157.4z"/>
			<path class="st1" d="M303.5,152.2L303.5,152.2c0.9,0,1.8,0.1,2.8,0.4c1,0.3,1.8,0.6,2.5,1.1l2.7-5.1c-3.2-1.1-6-1.6-8.4-1.6
				c-2.5,0-4.5,0.4-6.1,1.2c-1.6,0.8-2.7,1.8-3.3,3c-0.3,0.8-0.5,1.5-0.5,2.2c0,0.6,0.1,1.2,0.3,1.7c0.5,1.2,1.3,2.4,2.3,3.4
				c1.1,1.1,2.1,2,3.2,2.9c1,0.8,1.8,1.5,2.3,2.1c0.5,0.6,0.8,1,0.8,1.4c0,0.2-0.1,0.3-0.1,0.5c-0.3,0.4-0.8,0.6-1.5,0.6
				c-0.3,0-0.7,0-1.2-0.2c-1.3-0.3-2.7-0.9-4.1-1.7l-1.7,5.6c2.6,1.1,5.1,1.6,7.4,1.6h0.7c2.5-0.1,4.6-0.7,6.1-1.7
				c1.6-1.1,2.5-2.4,2.6-3.9v-0.2c0-1-0.3-2-0.8-2.9c-0.6-1-1.3-1.8-2.2-2.6c-0.9-0.8-1.8-1.6-2.7-2.3c-1.2-1-2.1-1.7-2.7-2.4
				c-0.5-0.6-0.8-1.1-0.8-1.5c0-0.4,0.1-0.7,0.4-1C302.1,152.3,302.6,152.2,303.5,152.2z"/>
			<path class="st1" d="M313.4,148v11.3c0,2.3,0.3,4.3,0.8,5.8c0.5,1.5,1.2,2.7,2.2,3.6c0.9,0.9,2,1.5,3.2,1.9
				c1.2,0.4,2.5,0.6,3.9,0.6c1.8,0,3.5-0.4,5-1.3c1.5-0.9,2.7-2.1,3.6-3.9c0.9-1.7,1.4-3.9,1.4-6.6h0V147H327v12.3
				c0,1.6-0.1,2.9-0.3,4.1c-0.2,1.2-0.5,2.1-1,2.8c-0.5,0.7-1.2,1-2.2,1c-0.9,0-1.5-0.4-2-1c-0.5-0.7-0.9-1.6-1.1-2.8
				c-0.2-1.2-0.3-2.5-0.3-4.1V147L313.4,148z"/>
			<path class="st1" d="M352.6,159.1c1-1.2,1.5-2.6,1.5-4.1s-0.5-2.8-1.5-4.1c-1-1.2-2.4-2.2-4.1-2.9c-1.7-0.7-3.6-1.1-5.7-1.1h-0.6
				l-6.6,0.8v23.5h6.6v-8.1l4.6,8.1h7l-5.1-9.2C350.2,161.3,351.6,160.3,352.6,159.1z M346.6,157.2c-0.4,0.7-1,1.2-1.7,1.6
				c-0.7,0.4-1.4,0.6-2.2,0.6c-0.2,0-0.4,0-0.6,0v-8.6c0.2,0,0.4,0,0.6,0c0.8,0,1.5,0.2,2.2,0.6c0.7,0.4,1.3,0.9,1.7,1.6
				c0.4,0.7,0.7,1.4,0.7,2.2C347.3,155.8,347.1,156.6,346.6,157.2z"/>
			<path class="st1" d="M188.1,189.3c-0.1,0-0.2,0-0.2,0.1c0,0.1-0.1,0.2-0.1,0.4l-0.1,0.4c-0.2-0.2-0.3-0.4-0.5-0.5
				c-0.2-0.1-0.4-0.2-0.6-0.2c-0.5,0-1,0.2-1.4,0.6c-0.5,0.4-0.9,1.1-1.3,1.9c-0.2,0.5-0.4,1.1-0.6,1.6c-0.1,0.6-0.2,1.1-0.2,1.6
				c0,0.1,0,0.3,0,0.4c0,0.1,0,0.2,0,0.4c-0.1,0.1-0.3,0.2-0.5,0.3c-0.2,0.1-0.3,0.1-0.6,0.1v0c-0.4-0.1-0.7-0.1-0.8-0.2
				c-0.1-0.1-0.2-0.2-0.2-0.4c0-0.3,0.2-1,0.5-1.9c0.3-1,0.5-1.6,0.5-2c0-0.4-0.3-0.9-0.8-1.3c-0.3-0.2-0.6-0.5-0.7-0.6
				c0-0.1,0.1-0.2,0.1-0.4c0-0.1,0-0.2,0-0.4c0-0.3,0-0.5-0.2-0.7c-0.1-0.2-0.3-0.3-0.5-0.3c-0.2,0-0.4,0.1-0.6,0.4
				c-0.1,0.3-0.2,0.6-0.2,1c0,0.2,0,0.4,0.1,0.6c0,0.1,0.1,0.3,0.2,0.4c-0.5,2.1-1,3.5-1.3,4.4c-0.4,0.8-0.8,1.3-1.3,1.4
				c-0.3,0-0.5-0.1-0.6-0.2c-0.1-0.1-0.1-0.3-0.1-0.5c0-0.3,0.1-0.8,0.2-1.4c0.1-0.6,0.3-1.3,0.6-2.2c0.1-0.4,0.3-0.9,0.4-1.4
				c0.2-0.5,0.2-0.7,0.2-0.8c0-0.2-0.1-0.3-0.3-0.5c-0.2-0.1-0.4-0.2-0.7-0.2c-0.1,0-0.2,0-0.2,0.1c0,0.1-0.1,0.2-0.1,0.4l-0.1,0.4
				c-0.2-0.2-0.3-0.4-0.5-0.5c-0.2-0.1-0.4-0.2-0.6-0.2c-0.5,0-1,0.2-1.4,0.6c-0.5,0.4-0.9,1.1-1.3,1.9c-0.2,0.5-0.4,1.1-0.6,1.6
				c-0.1,0.6-0.2,1.1-0.2,1.6v0.4c0,0.1,0,0.3,0,0.4c-0.1,0.1-0.3,0.2-0.4,0.3c-0.2,0.1-0.4,0.1-0.6,0.1c-0.3,0-0.5,0-0.7-0.1
				c-0.2-0.1-0.4-0.1-0.6-0.2c0.5-0.7,0.9-1.4,1.2-2.2c0.3-0.8,0.4-1.5,0.4-2.2c0-0.7-0.1-1.2-0.4-1.6c-0.3-0.4-0.6-0.6-1-0.6
				c-0.4,0-0.8,0.2-1.1,0.7c-0.4,0.5-0.8,1.4-1.3,2.6c0.1-0.6,0.3-1.4,0.5-2.3c0.2-1.2,0.4-1.8,0.4-1.9c0-0.1,0-0.2-0.1-0.3
				c-0.1-0.1-0.2-0.1-0.4-0.1c-0.5,0-0.9,0.7-1.1,2.2c-0.1,0.6-0.1,1.1-0.2,1.5l0,0.2c-0.4,2.8-1,4.3-1.7,4.3l-0.2,1.2
				c0.2,0,0.4-0.1,0.5-0.1c0.2-0.1,0.3-0.2,0.4-0.3c-0.1,0.7-0.3,1.6-0.6,2.5c-0.2,1-0.3,1.6-0.3,1.8c0,0.1,0,0.2,0.1,0.2
				c0.1,0.1,0.1,0.1,0.2,0.1c0.4,0,0.6,0,0.7-0.1c0.1-0.1,0.2-0.3,0.3-0.6c0-0.1,0-0.2,0.1-0.4c0.2-1.5,0.4-2.7,0.7-3.6
				c0.2,0.1,0.3,0.2,0.5,0.3c0.1,0.1,0.3,0.1,0.5,0.1c0.2,0,0.4,0,0.6-0.1c0.2-0.1,0.4-0.2,0.6-0.4c0.2,0.2,0.5,0.4,0.7,0.5
				c0.3,0.1,0.5,0.1,0.9,0.1h0.1h0c0.3,0,0.6-0.1,0.8-0.2c0.2-0.1,0.5-0.2,0.6-0.3c0.1,0.2,0.2,0.3,0.4,0.4c0.2,0.1,0.3,0.1,0.6,0.1
				c0.5,0,0.9-0.2,1.3-0.7c0.4-0.5,0.8-1.3,1.2-2.4c-0.1,0.5-0.2,0.8-0.2,1.1c0,0.3-0.1,0.5-0.1,0.7c0,0.4,0.1,0.8,0.4,1
				c0.2,0.2,0.7,0.3,1.3,0.3h0.1c0,0,0,0,0,0c0.7-0.1,1.3-0.6,1.9-1.5c0.5-1,1.1-2.5,1.6-4.7c0.2,0.2,0.4,0.4,0.5,0.5
				c0.1,0.1,0.1,0.3,0.1,0.4c0,0.3-0.1,0.9-0.4,1.8c-0.3,0.9-0.4,1.6-0.4,2.1c0,0.5,0.2,0.9,0.5,1.1c0.3,0.2,0.8,0.4,1.5,0.4h0.2h0
				c0.3,0,0.6-0.1,0.8-0.2c0.2-0.1,0.4-0.2,0.6-0.3c0.1,0.2,0.2,0.3,0.4,0.4c0.2,0.1,0.3,0.1,0.6,0.1c0.5,0,0.9-0.3,1.3-0.8
				c0.4-0.5,0.8-1.3,1.2-2.4c-0.1,0.5-0.2,0.8-0.2,1.1c0,0.3-0.1,0.5-0.1,0.7c0,0.5,0.1,0.8,0.4,1c0.2,0.2,0.7,0.3,1.2,0.3h0.1
				l0.2-1.1c-0.3-0.1-0.6-0.1-0.7-0.2c-0.1-0.1-0.1-0.3-0.1-0.5c0-0.3,0.1-0.8,0.2-1.4c0.1-0.6,0.3-1.3,0.6-2.2
				c0.1-0.4,0.3-0.9,0.4-1.4c0.2-0.5,0.2-0.7,0.2-0.8c0-0.2-0.1-0.3-0.3-0.5C188.6,189.3,188.3,189.3,188.1,189.3z M168.4,195.6
				c-0.2-0.1-0.3-0.2-0.4-0.2c-0.1,0-0.3-0.1-0.4-0.1c-0.1,0-0.3,0-0.4,0.1c-0.1,0.1-0.3,0.1-0.5,0.2c0.4-1.4,0.8-2.5,1.2-3.4
				c0.4-0.9,0.8-1.3,1.2-1.3c0.2,0,0.3,0.1,0.4,0.3c0.1,0.2,0.2,0.5,0.2,0.8c0,0.5-0.1,1.1-0.3,1.7
				C169.1,194.5,168.8,195.1,168.4,195.6z M174.4,194.9c-0.4,0.8-0.8,1.2-1.2,1.2c-0.1,0-0.2-0.1-0.3-0.2c-0.1-0.1-0.1-0.3-0.1-0.6
				c0-0.4,0.1-0.8,0.2-1.4c0.1-0.5,0.3-1,0.6-1.5c0.3-0.5,0.5-0.9,0.8-1.2c0.3-0.3,0.6-0.4,0.8-0.4c0.1,0,0.2,0,0.3,0.1
				c0.1,0.1,0.2,0.2,0.3,0.3C175.3,192.8,174.8,194,174.4,194.9z M186,194.9c-0.4,0.8-0.9,1.2-1.2,1.2c-0.1,0-0.2-0.1-0.3-0.2
				c-0.1-0.1-0.1-0.3-0.1-0.6c0-0.4,0.1-0.8,0.2-1.4c0.1-0.5,0.3-1,0.6-1.5c0.3-0.5,0.5-0.9,0.8-1.2c0.3-0.3,0.6-0.4,0.8-0.4
				c0.1,0,0.2,0,0.3,0.1c0.1,0,0.2,0.1,0.3,0.3C186.9,192.8,186.4,194,186,194.9z"/>
			<path class="st1" d="M223.7,186.9C223.6,186.9,223.6,186.9,223.7,186.9c-0.1,0-0.2-0.1-0.3-0.1l-0.3-0.1c-0.1,0-0.2-0.1-0.2-0.1
				c-0.1,0-0.2,0-0.2,0c-0.3,0-0.5,0.1-0.7,0.5c-0.2,0.3-0.4,0.8-0.5,1.4h0.6c0-0.2,0.1-0.4,0.2-0.5c0.1-0.1,0.2-0.2,0.3-0.2
				c0,0,0.1,0,0.1,0c0.1,0,0.1,0,0.2,0.1l0.3,0.1c0.1,0,0.1,0.1,0.2,0.1s0.2,0,0.2,0c0.3,0,0.5-0.1,0.7-0.4c0.2-0.3,0.4-0.8,0.5-1.4
				h-0.6c-0.1,0.2-0.1,0.4-0.2,0.5C223.9,186.9,223.8,186.9,223.7,186.9z"/>
			<path class="st1" d="M235.8,196.3c-0.1,0-0.2-0.1-0.3-0.2c0.2-0.3,0.3-0.6,0.4-1.1c0.1-0.4,0.2-0.9,0.2-1.3c0-0.5-0.1-1-0.2-1.4
				c-0.2-0.5-0.4-1-0.7-1.5c0.2-0.2,0.3-0.5,0.4-0.7c0.1-0.2,0.1-0.5,0.1-0.7c0-0.3-0.1-0.5-0.2-0.6c-0.1-0.2-0.3-0.2-0.5-0.2
				c-0.3,0-0.6,0.2-0.8,0.5c-0.2,0.3-0.3,0.7-0.3,1.1c0,0.2,0,0.3,0,0.5c0,0.1,0.1,0.3,0.2,0.4c-0.6,1.6-1.2,2.9-1.8,3.8
				c-0.6,1-1.1,1.5-1.4,1.5v0c-0.3-0.1-0.5-0.1-0.6-0.2c-0.1-0.1-0.1-0.3-0.1-0.5c0-0.3,0.1-0.8,0.2-1.4c0.1-0.6,0.3-1.3,0.6-2.2
				c0.1-0.4,0.3-0.9,0.4-1.4c0.2-0.5,0.2-0.7,0.2-0.8c0-0.2-0.1-0.3-0.3-0.5c-0.2-0.1-0.4-0.2-0.7-0.2c-0.1,0-0.2,0-0.2,0.1
				c0,0.1-0.1,0.2-0.1,0.4l-0.1,0.4c-0.2-0.2-0.3-0.4-0.5-0.5c-0.2-0.1-0.4-0.2-0.6-0.2c-0.5,0-1,0.2-1.4,0.6
				c-0.5,0.4-0.9,1.1-1.3,1.9c-0.2,0.5-0.4,1.1-0.6,1.6c-0.1,0.6-0.2,1.1-0.2,1.6c0,0.1,0,0.3,0,0.4c0,0.1,0,0.2,0,0.4
				c-0.1,0.1-0.3,0.2-0.5,0.3c-0.2,0.1-0.3,0.1-0.5,0.1h0c-0.3,0-0.5-0.1-0.6-0.2c-0.1-0.1-0.2-0.2-0.2-0.4c0-0.1,0-0.3,0.1-0.6
				c0-0.3,0.1-0.6,0.2-1l0.1-0.5c0.4-1.6,0.7-2.6,0.7-3c0-0.3-0.1-0.6-0.2-0.8c-0.1-0.2-0.3-0.3-0.6-0.3c-0.5,0-0.9,0.3-1.4,1
				c-0.5,0.7-1,1.7-1.6,3.1c0.2-0.8,0.4-1.7,0.6-2.5c0.2-0.9,0.4-1.4,0.4-1.5c0-0.1-0.1-0.2-0.2-0.3c-0.1,0-0.3-0.1-0.6-0.1
				c-0.3,0-0.6,0.5-0.7,1.6c-0.1,0.8-0.2,1.5-0.3,2c-0.2,1.2-0.5,2-0.8,2.6c-0.3,0.5-0.6,0.8-1,0.8c0,0,0,0,0,0h0
				c-0.3,0-0.5,0-0.7-0.1c-0.2-0.1-0.4-0.2-0.5-0.5c0.5-0.6,1-1.3,1.3-2.1c0.3-0.8,0.5-1.5,0.5-2.2c0-0.6-0.1-1.1-0.3-1.5
				c-0.2-0.4-0.5-0.5-0.9-0.5c-0.7,0-1.3,0.4-1.8,1.3s-0.8,1.8-0.8,2.9c0,0.5,0,0.9,0.1,1.3c0.1,0.4,0.2,0.7,0.3,1
				c-0.2,0.1-0.4,0.2-0.6,0.3c-0.2,0.1-0.5,0.1-0.7,0.2c-0.2,0-0.3,0-0.4-0.1c-0.1,0-0.1-0.1-0.2-0.1c-0.1-0.1-0.1-0.3-0.1-0.6
				c0-0.3,0-0.7,0.1-1.2c0.1-0.3,0.1-0.7,0.2-1.1c0.1-0.2,0.1-0.4,0.2-0.7c0.1-0.5,0.3-1.1,0.5-1.6c0.2-0.6,0.3-0.9,0.3-1
				c0-0.2-0.1-0.3-0.2-0.4c0,0,0,0,0,0c0,0,0,0,0,0c0,0,0,0,0,0c-0.2-0.1-0.4-0.2-0.6-0.2c0,0,0,0,0,0c0,0,0,0,0,0
				c-0.1,0-0.2,0.1-0.2,0.2c-0.2,0.2-0.3,0.5-0.4,1c-0.1,0.4-0.1,0.7-0.2,1c-0.1,0.4-0.2,0.7-0.3,1c-0.2,0.7-0.4,1.3-0.6,1.8
				c-0.1,0.3-0.2,0.5-0.3,0.7c-0.1,0.1-0.1,0.3-0.2,0.4c-0.1,0.2-0.2,0.3-0.3,0.4c-0.1,0.1-0.3,0.2-0.4,0.2c0,0-0.1,0-0.1-0.1
				c-0.1,0-0.1,0-0.1-0.1c-0.1-0.1-0.1-0.2-0.1-0.4c0-0.1,0-0.1,0-0.2c0-0.2,0.1-0.4,0.1-0.8c0.1-0.4,0.3-1.1,0.5-2
				c0.1-0.5,0.3-1.1,0.5-1.6c0.1-0.3,0.2-0.5,0.2-0.7c0-0.1,0.1-0.2,0.1-0.3c0-0.2-0.1-0.3-0.4-0.5c-0.2-0.1-0.5-0.2-0.8-0.2
				c-0.1,0-0.2,0.1-0.3,0.3c-0.1,0.2-0.2,0.5-0.3,0.9c0,0,0,0.1,0,0.1c0,0,0,0,0,0c-0.1,0.3-0.1,0.5-0.1,0.6c0,0.1-0.1,0.3-0.1,0.5
				c0,0.1,0,0.1-0.1,0.2c-0.4,1.7-0.6,2.9-0.6,3.4v0.2c0,0,0,0.1,0,0.1c0,0,0,0,0,0c-0.2,0.2-0.4,0.3-0.6,0.4c0,0-0.1,0-0.1,0
				c-0.2,0.1-0.3,0.1-0.5,0.1h0c0,0-0.1,0-0.1,0c-0.5,0.1-0.9,0.2-1.1,0.2l1.2-6.1c0-0.1,0-0.2,0-0.3c0-0.1,0-0.1,0-0.1
				c0-0.2-0.1-0.3-0.2-0.4c-0.1-0.1-0.4-0.1-0.6-0.1c-0.1,0-0.3,0-0.3,0.1c-0.1,0.1-0.1,0.3-0.2,0.6c-0.2-0.2-0.4-0.3-0.6-0.4
				c-0.2-0.1-0.4-0.1-0.5-0.1c-0.3,0-0.7,0.2-1.1,0.5c-0.4,0.3-0.7,0.7-1.1,1.3c-0.3,0.6-0.6,1.2-0.8,1.9c-0.2,0.7-0.3,1.4-0.3,2
				c0,0.1,0,0.3,0,0.4c0,0.1,0,0.3,0,0.4c-0.1,0.1-0.3,0.2-0.5,0.2c-0.2,0.1-0.3,0.1-0.5,0.1h0h-0.1c-0.3,0-0.5,0-0.7-0.1
				c-0.2-0.1-0.4-0.2-0.5-0.5c0.5-0.6,1-1.3,1.3-2.1c0.3-0.8,0.5-1.5,0.5-2.2c0-0.6-0.1-1.1-0.3-1.5c-0.2-0.3-0.5-0.5-0.9-0.5
				c-0.7,0-1.3,0.4-1.8,1.3c-0.5,0.8-0.8,1.8-0.8,2.9c0,0.5,0,0.9,0.1,1.3c0.1,0.4,0.2,0.7,0.3,1c-0.2,0.1-0.4,0.2-0.6,0.3
				c-0.2,0.1-0.5,0.1-0.7,0.2h0c-0.2,0-0.5,0-0.7-0.1c-0.2-0.1-0.4-0.1-0.6-0.2c0.5-0.7,0.9-1.4,1.2-2.2c0.3-0.8,0.4-1.5,0.4-2.2
				c0-0.7-0.1-1.2-0.4-1.6c-0.2-0.4-0.6-0.6-1-0.6c-0.4,0-0.8,0.2-1.2,0.7s-0.8,1.4-1.3,2.6c0.1-0.6,0.3-1.4,0.5-2.3
				c0.3-1.1,0.4-1.8,0.4-1.9c0-0.1,0-0.2-0.1-0.3c-0.1-0.1-0.2-0.1-0.4-0.1c-0.5,0-0.9,0.7-1.1,2.2c-0.1,0.6-0.1,1.1-0.2,1.5l0,0.2
				c-0.4,2.8-1,4.3-1.7,4.3l-0.2,1.2c0.2,0,0.4-0.1,0.5-0.1c0.2-0.1,0.3-0.2,0.4-0.3c-0.1,0.7-0.3,1.6-0.6,2.6
				c-0.2,1-0.4,1.6-0.4,1.8c0,0.1,0,0.2,0.1,0.2c0.1,0.1,0.2,0.1,0.2,0.1c0.4,0,0.6,0,0.8-0.1c0.1-0.1,0.2-0.3,0.3-0.6
				c0-0.1,0-0.2,0-0.4c0.2-1.5,0.5-2.7,0.7-3.6c0.2,0.1,0.3,0.2,0.5,0.3c0.2,0.1,0.3,0.1,0.5,0.1c0.2,0,0.4,0,0.6-0.1
				c0.2-0.1,0.4-0.2,0.6-0.4c0.2,0.2,0.5,0.4,0.7,0.5c0.3,0.1,0.6,0.1,0.9,0.1h0.1h0c0.4,0,0.7-0.1,1.1-0.2c0.4-0.2,0.7-0.4,1.1-0.6
				c0.2,0.3,0.5,0.5,0.8,0.6c0.3,0.1,0.7,0.2,1.1,0.2h0.1h0c0.3,0,0.6-0.1,0.8-0.2c0.2-0.1,0.5-0.2,0.6-0.3c0.1,0.2,0.2,0.3,0.4,0.4
				c0.2,0.1,0.3,0.1,0.6,0.1c0.4,0,0.8-0.2,1.1-0.5c0.3-0.4,0.7-0.9,1-1.7l-1,4.9c0,0.1,0,0.2-0.1,0.4c-0.1,0.3-0.1,0.6-0.1,0.7
				c0,0.2,0,0.3,0.1,0.4c0.1,0.1,0.3,0.1,0.5,0.1c0.2,0,0.4-0.1,0.5-0.2c0.1-0.1,0.2-0.3,0.2-0.7c0,0,0,0,0-0.1c0.1-1,0.3-2,0.5-3.2
				c0.2-0.1,0.6-0.2,1.1-0.2c0,0,0.1,0,0.1,0c0,0,0,0,0,0c0.3,0,0.5-0.1,0.7-0.2c0,0,0.1,0,0.2,0c0,0,0,0,0,0
				c0.2-0.1,0.4-0.3,0.6-0.5c0,0,0,0,0,0c0.1,0.3,0.2,0.4,0.3,0.5c0,0,0,0,0,0c0,0,0,0,0,0c0.2,0.1,0.3,0.2,0.6,0.2
				c0.1,0,0.2,0,0.2-0.1c0.3-0.1,0.5-0.2,0.8-0.5c0,0,0,0,0,0l0,0c0,0,0,0,0,0c0.3-0.4,0.8-1.2,1.3-2.5c0,0.2-0.1,0.3-0.1,0.4
				c0,0.2-0.1,0.5-0.1,0.6c0,0,0,0,0,0c0,0.2,0,0.3,0,0.4c0,0.1,0,0.2,0,0.3c0,0.5,0.1,0.8,0.3,1c0.1,0.1,0.2,0.2,0.4,0.2
				c0.2,0.1,0.4,0.1,0.7,0.1h0.1c0,0,0,0,0,0c0.4,0,0.7-0.1,1.1-0.3c0.4-0.1,0.7-0.3,1.1-0.6c0.2,0.3,0.5,0.5,0.8,0.6
				c0.3,0.1,0.7,0.2,1.1,0.2h0.1c0,0,0,0,0,0c0.3,0,0.5-0.1,0.7-0.2c0.2-0.1,0.4-0.3,0.6-0.6c0,0.1-0.1,0.3-0.1,0.4
				c0,0.1,0,0.2,0,0.2c0,0.1,0,0.2,0.1,0.2c0.1,0,0.2,0.1,0.3,0.1c0.5,0,0.8-0.3,0.9-1c0.1-0.4,0.2-0.7,0.2-0.9
				c0.4-1.2,0.8-2.2,1.2-3.1c0.5-0.9,0.8-1.3,1-1.3c0.1,0,0.1,0,0.1,0.1c0,0,0.1,0.1,0.1,0.2c0,0.1-0.1,0.5-0.3,1.2l0,0.2
				c-0.2,0.8-0.4,1.4-0.5,1.9c-0.1,0.5-0.2,0.9-0.2,1.1c0,0.5,0.1,0.9,0.4,1.2c0.3,0.3,0.8,0.4,1.4,0.4h0.1h0c0.3,0,0.6-0.1,0.8-0.2
				c0.2-0.1,0.4-0.2,0.6-0.3c0.1,0.2,0.2,0.3,0.4,0.4c0.2,0.1,0.3,0.1,0.6,0.1c0.5,0,0.9-0.3,1.3-0.8s0.8-1.3,1.2-2.4
				c-0.1,0.5-0.2,0.8-0.2,1.1c0,0.3-0.1,0.5-0.1,0.7c0,0.5,0.1,0.8,0.4,1c0.2,0.2,0.7,0.3,1.2,0.3h0.1c0,0,0,0,0,0
				c0.2-0.1,0.5-0.1,0.7-0.3c0.2-0.1,0.4-0.3,0.6-0.5c0.2,0.2,0.4,0.4,0.7,0.6c0.3,0.1,0.5,0.2,0.8,0.2c0.2,0,0.4,0,0.6-0.1
				c0.2-0.1,0.4-0.2,0.7-0.3c0.2,0.1,0.4,0.2,0.6,0.3c0.2,0.1,0.4,0.1,0.6,0.1h0.2l0.2-1.2h-0.1C236,196.3,235.9,196.3,235.8,196.3z
				 M195.3,195.6c-0.2-0.1-0.3-0.2-0.4-0.2c-0.1,0-0.3-0.1-0.4-0.1c-0.1,0-0.3,0-0.4,0.1c-0.1,0.1-0.3,0.1-0.4,0.3
				c0.4-1.4,0.8-2.5,1.2-3.4c0.4-0.9,0.8-1.3,1.2-1.3c0.2,0,0.3,0.1,0.4,0.3c0.1,0.2,0.1,0.5,0.1,0.8c0,0.5-0.1,1.1-0.3,1.7
				C196,194.5,195.7,195.1,195.3,195.6z M200,194.9c-0.1-0.2-0.2-0.3-0.2-0.5c0-0.2-0.1-0.4-0.1-0.7c0-0.7,0.1-1.4,0.4-1.9
				c0.2-0.6,0.5-0.8,0.8-0.8c0.2,0,0.3,0.1,0.4,0.2s0.1,0.3,0.1,0.6c0,0.5-0.1,1.1-0.4,1.7C200.7,194,200.4,194.5,200,194.9z
				 M205.6,194.7c-0.5,0.9-0.9,1.4-1.2,1.4c-0.1,0-0.2-0.1-0.3-0.2c-0.1-0.1-0.1-0.3-0.1-0.6c0-0.4,0.1-0.9,0.2-1.5
				c0.2-0.5,0.4-1.1,0.6-1.6c0.2-0.4,0.5-0.8,0.7-1c0.2-0.2,0.5-0.3,0.8-0.3c0.1,0,0.2,0,0.2,0.1c0.1,0,0.1,0.1,0.2,0.2
				C206.4,192.6,206,193.8,205.6,194.7z M216.8,194.9c-0.1-0.2-0.2-0.3-0.2-0.5c0-0.2-0.1-0.5-0.1-0.7c0-0.7,0.1-1.4,0.4-1.9
				c0.3-0.6,0.5-0.8,0.8-0.8c0.2,0,0.3,0.1,0.3,0.2c0.1,0.1,0.1,0.3,0.1,0.6c0,0.5-0.1,1.1-0.4,1.7
				C217.5,194,217.2,194.5,216.8,194.9z M228.5,194.9c-0.4,0.8-0.9,1.2-1.2,1.2c-0.1,0-0.2-0.1-0.3-0.2c-0.1-0.1-0.1-0.3-0.1-0.6
				c0-0.4,0.1-0.8,0.2-1.4c0.1-0.5,0.3-1,0.6-1.5c0.3-0.5,0.5-0.9,0.8-1.2c0.3-0.3,0.6-0.4,0.8-0.4c0.1,0,0.2,0,0.3,0.1
				c0.1,0,0.2,0.1,0.3,0.3C229.4,192.8,228.9,194,228.5,194.9z M234.4,195.5c-0.2,0.4-0.5,0.7-0.8,0.8c-0.1-0.2-0.1-0.5-0.2-0.6
				c-0.1-0.2-0.2-0.3-0.4-0.4c0.4-0.5,0.7-1.1,0.9-1.6c0.3-0.6,0.5-1.1,0.6-1.6c0.1,0.4,0.1,0.7,0.2,1c0,0.3,0.1,0.6,0.1,0.8
				C234.7,194.6,234.6,195.1,234.4,195.5z"/>
			<path class="st1" d="M245.2,189.4c-0.2,0-0.4,0.4-0.6,1.2c-0.1,0.7-0.3,1.3-0.4,1.8c-0.3,1-0.6,1.9-1,2.5c-0.4,0.6-0.7,0.9-1,0.9
				c-0.1,0-0.2-0.1-0.3-0.2c-0.1-0.1-0.1-0.3-0.1-0.5c0-0.4,0-0.8,0.1-1.2c0.1-0.5,0.2-1.1,0.4-1.8c0.1-0.3,0.2-0.7,0.4-1.3
				s0.2-0.8,0.2-0.9c0-0.2-0.1-0.4-0.2-0.5c-0.2-0.1-0.4-0.2-0.7-0.2c-0.1,0-0.3,0.2-0.4,0.5c-0.1,0.3-0.3,1-0.6,2
				c-0.2,0.9-0.4,1.6-0.5,2.2c-0.1,0.6-0.1,1.2-0.2,1.8c-0.2,0.2-0.4,0.3-0.6,0.4c-0.2,0.1-0.4,0.1-0.7,0.2l-0.2,1.2
				c0.3,0,0.5-0.1,0.8-0.2c0.3-0.1,0.6-0.3,0.9-0.5c0.1,0.2,0.2,0.4,0.3,0.5c0.2,0.1,0.3,0.2,0.5,0.2c0.4,0,0.8-0.3,1.2-0.8
				c0.4-0.5,0.8-1.3,1.2-2.4c-0.1,0.6-0.3,1.2-0.4,1.8c-0.2,0.6-0.3,1.3-0.5,2c-0.5,0.3-0.8,0.7-1.1,1.2c-0.3,0.5-0.4,1-0.4,1.6
				c0,0.3,0.1,0.5,0.2,0.6c0.1,0.2,0.3,0.2,0.4,0.2c0.4,0,0.8-0.3,1.1-1c0.3-0.7,0.6-1.7,0.9-3c0.1-0.1,0.3-0.1,0.5-0.2
				c0.2,0,0.5-0.1,0.8-0.1l0.2-1.2c0,0-0.1,0-0.1,0c-0.5,0.1-0.9,0.1-1.1,0.2l1.3-5.3c0-0.1,0.1-0.3,0.1-0.6
				c0.1-0.3,0.1-0.5,0.1-0.6c0-0.2-0.1-0.3-0.2-0.5C245.6,189.5,245.4,189.4,245.2,189.4z"/>
			<path class="st1" d="M288.1,196.3c-0.1,0-0.2-0.1-0.3-0.2c0.2-0.3,0.3-0.6,0.4-1.1c0.1-0.4,0.1-0.9,0.1-1.3c0-0.5-0.1-1-0.2-1.4
				c-0.1-0.5-0.4-1-0.7-1.5c0.2-0.2,0.3-0.5,0.4-0.7c0.1-0.2,0.1-0.5,0.1-0.7c0-0.3-0.1-0.5-0.2-0.6c-0.1-0.2-0.3-0.2-0.4-0.2
				c-0.3,0-0.6,0.2-0.8,0.5c-0.2,0.3-0.3,0.7-0.3,1.1c0,0.2,0,0.3,0,0.5c0,0.1,0.1,0.3,0.2,0.4c-0.6,1.6-1.2,2.9-1.8,3.8
				c-0.6,0.9-1,1.5-1.4,1.5h0h-0.1c-0.3,0-0.5,0-0.7-0.1c-0.2-0.1-0.4-0.2-0.5-0.5c0.5-0.6,1-1.3,1.3-2.1c0.3-0.8,0.5-1.5,0.5-2.2
				c0-0.6-0.1-1.1-0.3-1.5c-0.2-0.3-0.5-0.5-0.9-0.5c-0.7,0-1.3,0.4-1.8,1.3c-0.5,0.8-0.8,1.8-0.8,2.9c0,0.5,0,0.9,0.1,1.3
				c0.1,0.4,0.2,0.7,0.3,1c-0.2,0.1-0.4,0.2-0.7,0.3c-0.2,0.1-0.5,0.1-0.7,0.2v0c-0.3,0-0.5-0.1-0.7-0.2c-0.1-0.1-0.2-0.3-0.2-0.6
				c0-0.3,0.1-1.1,0.4-2.2c0.2-1.1,0.6-2.3,0.9-3.6l1-3.5c0-0.1,0.1-0.3,0.2-0.5c0.1-0.3,0.2-0.6,0.2-0.7c0-0.2-0.1-0.4-0.2-0.5
				c-0.1-0.1-0.3-0.1-0.6-0.1c-0.4,0-0.7,0.5-0.9,1.4c0,0.2-0.1,0.4-0.1,0.5l-0.9,3.7c-0.2-0.1-0.3-0.2-0.5-0.3
				c-0.2-0.1-0.3-0.1-0.5-0.1c-0.4,0-0.9,0.2-1.3,0.5c-0.4,0.3-0.8,0.8-1.2,1.5c-0.3,0.5-0.5,1.1-0.7,1.8c-0.2,0.6-0.3,1.3-0.3,1.9
				c0,0.2,0,0.3,0,0.5c0,0.1,0,0.3,0,0.4c-0.1,0.1-0.3,0.2-0.4,0.3c-0.2,0.1-0.4,0.1-0.6,0.1c-0.3,0-0.5-0.1-0.6-0.2
				s-0.2-0.2-0.2-0.4c0-0.1,0-0.3,0.1-0.6c0.1-0.3,0.1-0.6,0.2-1l0.1-0.5c0.4-1.6,0.7-2.6,0.7-3c0-0.3-0.1-0.6-0.2-0.8
				c-0.1-0.2-0.3-0.3-0.6-0.3c-0.5,0-0.9,0.3-1.4,1c-0.5,0.7-1,1.7-1.6,3.1c0.2-0.8,0.4-1.7,0.6-2.5c0.2-0.9,0.3-1.4,0.3-1.5
				c0-0.1-0.1-0.2-0.2-0.3c-0.1,0-0.3-0.1-0.6-0.1c-0.3,0-0.6,0.5-0.7,1.6c-0.1,0.8-0.2,1.5-0.3,2c-0.2,1.2-0.5,2-0.8,2.6
				c-0.3,0.5-0.6,0.8-1,0.8v0c-0.3-0.1-0.5-0.1-0.6-0.2c-0.1-0.1-0.1-0.3-0.1-0.5c0-0.3,0.1-0.8,0.2-1.4c0.1-0.6,0.3-1.3,0.6-2.2
				c0.1-0.4,0.3-0.9,0.4-1.4c0.2-0.5,0.2-0.7,0.2-0.8c0-0.2-0.1-0.3-0.3-0.5c-0.2-0.1-0.4-0.2-0.7-0.2c-0.1,0-0.2,0-0.2,0.1
				c-0.1,0.1-0.1,0.2-0.2,0.4l-0.1,0.4c-0.2-0.2-0.3-0.4-0.5-0.5c-0.2-0.1-0.4-0.2-0.6-0.2c-0.5,0-1,0.2-1.4,0.6
				c-0.5,0.4-0.9,1.1-1.3,1.9c-0.2,0.5-0.4,1.1-0.6,1.6c-0.1,0.6-0.2,1.1-0.2,1.6c0,0.1,0,0.3,0,0.4c0,0.1,0,0.2,0,0.4
				c-0.1,0.1-0.3,0.2-0.4,0.3c-0.2,0.1-0.4,0.1-0.6,0.1v0c-0.4-0.1-0.7-0.1-0.8-0.2c-0.1-0.1-0.2-0.2-0.2-0.4c0-0.3,0.2-1,0.5-1.9
				c0.3-1,0.4-1.6,0.4-2c0-0.4-0.3-0.9-0.8-1.3c-0.3-0.2-0.6-0.5-0.8-0.6c0-0.1,0.1-0.2,0.1-0.4c0-0.1,0-0.2,0-0.4
				c0-0.3-0.1-0.5-0.2-0.7c-0.1-0.2-0.3-0.3-0.5-0.3c-0.2,0-0.4,0.1-0.6,0.4c-0.1,0.3-0.2,0.6-0.2,1c0,0.2,0,0.4,0.1,0.6
				c0,0.1,0.1,0.3,0.2,0.4c-0.5,2.1-1,3.5-1.4,4.4c-0.4,0.8-0.8,1.3-1.3,1.4c-0.1,0-0.3,0.1-0.6,0.1c-0.3,0-0.5,0.1-0.6,0.1l1.7-6
				c0.1-0.2,0.1-0.4,0.1-0.5c0-0.1,0-0.2,0-0.3c0-0.2-0.1-0.3-0.2-0.4c-0.1-0.1-0.3-0.1-0.5-0.1c-0.3,0-0.5,0.1-0.6,0.2
				c-0.1,0.1-0.1,0.4-0.2,0.7c-0.2-0.3-0.3-0.4-0.5-0.6c-0.2-0.1-0.4-0.2-0.6-0.2c-0.5,0-1,0.2-1.4,0.6c-0.5,0.4-0.9,1.1-1.3,1.9
				c-0.2,0.5-0.4,1.1-0.6,1.6c-0.1,0.6-0.2,1.1-0.2,1.6c0,0.1,0,0.3,0,0.4c0,0.1,0,0.2,0,0.4c-0.1,0.1-0.3,0.2-0.4,0.3
				c-0.2,0.1-0.3,0.1-0.6,0.1l-0.2,1.2c0.3,0,0.6-0.1,0.8-0.2c0.3-0.1,0.5-0.2,0.7-0.3c0.1,0.2,0.2,0.3,0.4,0.4
				c0.2,0.1,0.3,0.1,0.6,0.1c0.5,0,0.9-0.3,1.3-0.8c0.4-0.5,0.8-1.3,1.2-2.4c-0.2,0.7-0.3,1.4-0.5,2c-0.2,0.6-0.4,1.2-0.5,1.8
				c-0.5,0.4-0.9,0.8-1.2,1.2c-0.2,0.4-0.4,0.9-0.4,1.4c0,0.3,0.1,0.6,0.2,0.8c0.1,0.2,0.3,0.3,0.6,0.3c0.4,0,0.7-0.3,1.1-0.9
				c0.3-0.6,0.7-1.6,1.1-3.1c0.2-0.1,0.6-0.2,1.2-0.3l0.1,0c0.7-0.1,1.4-0.6,1.9-1.5c0.5-1,1.1-2.5,1.6-4.7c0.2,0.2,0.4,0.4,0.5,0.5
				c0.1,0.1,0.1,0.3,0.1,0.4c0,0.3-0.1,0.9-0.4,1.8c-0.3,0.9-0.4,1.6-0.4,2.1c0,0.5,0.1,0.9,0.4,1.1c0.3,0.2,0.8,0.4,1.5,0.4h0.2
				c0.3,0,0.6-0.1,0.8-0.2c0.2-0.1,0.5-0.2,0.7-0.3c0.1,0.2,0.2,0.3,0.4,0.4c0.2,0.1,0.4,0.1,0.6,0.1c0.4,0,0.9-0.3,1.3-0.8
				c0.4-0.5,0.8-1.3,1.2-2.4c-0.1,0.5-0.2,0.8-0.2,1.1c0,0.3-0.1,0.5-0.1,0.7c0,0.5,0.1,0.8,0.4,1c0.2,0.2,0.7,0.3,1.3,0.3h0.1h0
				c0.3,0,0.5-0.1,0.7-0.2c0.2-0.1,0.4-0.3,0.6-0.6c-0.1,0.1-0.1,0.3-0.1,0.4c0,0.1,0,0.2,0,0.2c0,0.1,0,0.2,0.1,0.2
				c0.1,0.1,0.2,0.1,0.3,0.1c0.5,0,0.8-0.3,0.9-1c0.1-0.4,0.2-0.7,0.2-0.9c0.3-1.2,0.8-2.2,1.2-3.1c0.5-0.9,0.8-1.3,1-1.3
				c0.1,0,0.1,0,0.2,0.1c0,0.1,0,0.1,0,0.2c0,0.1-0.1,0.5-0.3,1.2l-0.1,0.2c-0.2,0.8-0.4,1.4-0.5,1.9c-0.1,0.5-0.2,0.9-0.2,1.1
				c0,0.5,0.1,0.9,0.4,1.2c0.3,0.3,0.7,0.4,1.4,0.4h0.1c0,0,0,0,0,0c0.3,0,0.6-0.1,0.9-0.2c0.3-0.1,0.5-0.2,0.6-0.4
				c0.1,0.2,0.2,0.3,0.4,0.4c0.2,0.1,0.4,0.2,0.6,0.2c0.4,0,0.8-0.3,1.2-0.8c0.4-0.5,0.8-1.3,1.2-2.3c-0.1,0.5-0.2,0.8-0.2,1.1
				c0,0.3-0.1,0.5-0.1,0.7c0,0.5,0.1,0.8,0.4,1c0.2,0.2,0.7,0.3,1.3,0.3h0.1c0,0,0,0,0,0c0.4,0,0.7-0.1,1.1-0.2
				c0.4-0.2,0.7-0.4,1.1-0.6c0.2,0.3,0.5,0.5,0.8,0.6c0.3,0.1,0.7,0.2,1.1,0.2h0.1h0c0.2-0.1,0.5-0.1,0.7-0.3
				c0.2-0.1,0.4-0.3,0.6-0.5c0.2,0.2,0.4,0.4,0.7,0.6c0.3,0.1,0.5,0.2,0.8,0.2c0.2,0,0.4,0,0.6-0.1c0.2-0.1,0.4-0.2,0.7-0.3
				c0.2,0.1,0.4,0.2,0.6,0.3c0.2,0.1,0.4,0.1,0.6,0.1h0.2l0.2-1.2h-0.1C288.4,196.3,288.3,196.3,288.1,196.3z M252.5,194.9
				c-0.4,0.8-0.9,1.2-1.2,1.2c-0.1,0-0.2-0.1-0.3-0.2c-0.1-0.1-0.1-0.3-0.1-0.6c0-0.4,0.1-0.8,0.2-1.4c0.1-0.5,0.3-1,0.6-1.5
				c0.3-0.5,0.5-0.9,0.8-1.2c0.3-0.3,0.6-0.4,0.8-0.4c0.1,0,0.2,0,0.3,0.1c0.1,0,0.2,0.1,0.3,0.3C253.4,192.8,252.9,194,252.5,194.9
				z M264.2,194.9c-0.4,0.8-0.8,1.2-1.2,1.2c-0.1,0-0.2-0.1-0.3-0.2c-0.1-0.1-0.1-0.3-0.1-0.6c0-0.4,0.1-0.8,0.2-1.4
				c0.2-0.5,0.3-1,0.6-1.5c0.3-0.5,0.5-0.9,0.8-1.2c0.3-0.3,0.5-0.4,0.8-0.4c0.1,0,0.2,0,0.3,0.1c0.1,0,0.2,0.1,0.3,0.3
				C265.1,192.8,264.6,194,264.2,194.9z M276.5,194.8c-0.4,0.9-0.8,1.3-1.1,1.3c-0.1,0-0.2-0.1-0.3-0.2c-0.1-0.2-0.1-0.4-0.1-0.6
				c0-0.3,0.1-0.8,0.2-1.3c0.1-0.5,0.3-1,0.6-1.5c0.3-0.5,0.6-1,0.8-1.2c0.3-0.3,0.6-0.4,0.8-0.4c0.1,0,0.1,0,0.2,0
				c0.1,0,0.1,0.1,0.2,0.1C277.3,192.6,276.9,193.9,276.5,194.8z M281.6,194.9c-0.1-0.2-0.2-0.3-0.2-0.5c0-0.2-0.1-0.4-0.1-0.7
				c0-0.7,0.1-1.4,0.4-1.9c0.2-0.6,0.5-0.8,0.8-0.8c0.1,0,0.3,0.1,0.3,0.2c0.1,0.1,0.1,0.3,0.1,0.6c0,0.5-0.1,1.1-0.4,1.7
				C282.3,194,282,194.5,281.6,194.9z M286.7,195.5c-0.2,0.4-0.5,0.7-0.8,0.8c-0.1-0.2-0.1-0.5-0.3-0.6c-0.1-0.2-0.2-0.3-0.4-0.4
				c0.3-0.5,0.7-1.1,0.9-1.6c0.3-0.6,0.5-1.1,0.6-1.6c0.1,0.4,0.1,0.7,0.2,1c0,0.3,0,0.6,0,0.8C287,194.6,286.9,195.1,286.7,195.5z"
				/>
			<path class="st1" d="M295.6,192.7c0.1,0,0.2,0.1,0.3,0.1c0.1,0,0.2,0,0.2,0c0.4,0,0.7-0.1,0.9-0.3c0.2-0.2,0.4-0.5,0.4-0.9
				c0-0.3-0.1-0.5-0.2-0.7c-0.1-0.2-0.3-0.3-0.5-0.3c-0.2,0-0.4,0.1-0.6,0.2c-0.2,0.1-0.4,0.3-0.7,0.5c0,0,0,0,0,0
				c0-0.2,0-0.4,0-0.5c0-0.5,0.1-1.1,0.3-1.7c0.2-0.6,0.4-1.2,0.8-1.7c0.3-0.6,0.6-1,1-1.3c0.3-0.3,0.6-0.4,0.9-0.4
				c0.2,0,0.3,0,0.4,0.1c0.1,0.1,0.2,0.2,0.3,0.4c0.2,0,0.3-0.1,0.3-0.3c0.1-0.1,0.1-0.3,0.1-0.5c0-0.4-0.1-0.6-0.4-0.9
				c-0.2-0.2-0.5-0.4-0.9-0.4c-0.5,0-0.9,0.2-1.4,0.5c-0.5,0.4-0.9,0.9-1.3,1.5c-0.4,0.6-0.7,1.3-0.9,1.9c-0.2,0.7-0.3,1.3-0.3,1.8
				c0,0.4,0,0.8,0.2,1.2c0.1,0.4,0.2,0.6,0.4,0.8c-0.9,1-1.7,2.1-2.2,3.3c-0.6,1.2-0.8,2.4-0.8,3.5c0,0.8,0.2,1.4,0.5,1.8
				c0.3,0.5,0.7,0.7,1.3,0.7c0.5,0,1-0.2,1.5-0.7c0.5-0.4,1-1.1,1.6-2c0.3-0.4,0.5-0.8,0.6-1.2c0.2-0.3,0.2-0.6,0.2-0.7
				c0-0.2-0.1-0.4-0.2-0.5c-0.1-0.2-0.3-0.2-0.4-0.2c-0.1,0-0.2,0.2-0.4,0.6c-0.2,0.4-0.4,0.8-0.6,1.1c-0.4,0.6-0.7,1.1-1,1.4
				c-0.3,0.3-0.7,0.5-0.9,0.5c-0.2,0-0.3-0.1-0.4-0.2c-0.1-0.1-0.1-0.3-0.1-0.6c0-0.7,0.2-1.6,0.6-2.8
				C294.4,194.8,294.9,193.7,295.6,192.7z"/>
			<path class="st1" d="M338.9,196.3c-0.1,0-0.2-0.1-0.3-0.2c0.2-0.3,0.3-0.6,0.4-1.1c0.1-0.4,0.2-0.9,0.2-1.3c0-0.5-0.1-1-0.2-1.4
				c-0.1-0.5-0.4-1-0.7-1.5c0.2-0.2,0.3-0.5,0.4-0.7c0.1-0.2,0.1-0.5,0.1-0.7c0-0.3,0-0.5-0.2-0.6c-0.1-0.2-0.3-0.2-0.5-0.2
				c-0.3,0-0.6,0.2-0.8,0.5c-0.2,0.3-0.3,0.7-0.3,1.1c0,0.2,0,0.3,0,0.5c0,0.1,0.1,0.3,0.2,0.4c-0.6,1.6-1.2,2.9-1.8,3.8
				c-0.6,1-1.1,1.5-1.4,1.5v0c-0.3-0.1-0.5-0.1-0.6-0.2c-0.1-0.1-0.1-0.3-0.1-0.5c0-0.3,0.1-0.8,0.2-1.4c0.1-0.6,0.3-1.3,0.6-2.2
				c0.1-0.4,0.3-0.9,0.4-1.4c0.2-0.5,0.2-0.7,0.2-0.8c0-0.2-0.1-0.3-0.3-0.5c-0.2-0.1-0.4-0.2-0.7-0.2c-0.1,0-0.2,0-0.2,0.1
				c0,0.1-0.1,0.2-0.1,0.4l-0.1,0.4c-0.2-0.2-0.3-0.4-0.5-0.5c-0.2-0.1-0.4-0.2-0.6-0.2c-0.5,0-1,0.2-1.4,0.6
				c-0.5,0.4-0.9,1.1-1.3,1.9c-0.3,0.5-0.4,1.1-0.6,1.6c-0.1,0.6-0.2,1.1-0.2,1.6v0.4c0,0.1,0,0.2,0,0.4c-0.1,0.1-0.3,0.2-0.4,0.3
				c-0.2,0.1-0.3,0.1-0.5,0.1h0h-0.1c-0.2,0-0.3,0-0.4,0c-0.1,0-0.2-0.1-0.3-0.2c0.2-0.3,0.3-0.6,0.4-1.1c0.1-0.4,0.1-0.9,0.1-1.3
				c0-0.5-0.1-1-0.2-1.4c-0.1-0.5-0.4-1-0.7-1.5c0.2-0.2,0.3-0.5,0.4-0.7c0.1-0.2,0.1-0.5,0.1-0.7c0-0.3-0.1-0.5-0.2-0.6
				c-0.1-0.2-0.3-0.2-0.4-0.2c-0.3,0-0.6,0.2-0.8,0.5c-0.2,0.3-0.3,0.7-0.3,1.1c0,0.2,0,0.3,0,0.5c0,0.1,0.1,0.3,0.2,0.4
				c-0.6,1.6-1.2,2.9-1.8,3.8c-0.6,0.9-1,1.5-1.4,1.5h0h-0.1c-0.3,0-0.5,0-0.7-0.1c-0.2-0.1-0.4-0.2-0.5-0.5c0.5-0.6,1-1.3,1.3-2.1
				c0.3-0.8,0.5-1.5,0.5-2.2c0-0.6-0.1-1.1-0.3-1.5c-0.2-0.3-0.5-0.5-0.9-0.5c-0.7,0-1.3,0.4-1.8,1.3c-0.5,0.8-0.8,1.8-0.8,2.9
				c0,0.5,0,0.9,0.1,1.3c0.1,0.4,0.2,0.7,0.3,1c-0.2,0.1-0.4,0.2-0.7,0.3c-0.2,0.1-0.5,0.1-0.7,0.2v0c-0.4-0.1-0.7-0.1-0.8-0.2
				c-0.1-0.1-0.2-0.2-0.2-0.4c0-0.3,0.2-1,0.5-1.9c0.3-1,0.5-1.6,0.5-2c0-0.4-0.3-0.9-0.8-1.3c-0.3-0.2-0.6-0.5-0.8-0.6
				c0.1-0.1,0.1-0.2,0.1-0.4c0-0.1,0-0.2,0-0.4c0-0.3-0.1-0.5-0.2-0.7c-0.1-0.2-0.3-0.3-0.5-0.3c-0.2,0-0.4,0.1-0.6,0.4
				c-0.1,0.3-0.2,0.6-0.2,1c0,0.2,0,0.4,0.1,0.6c0,0.1,0.1,0.3,0.2,0.4c-0.5,2.1-1,3.5-1.4,4.4c-0.4,0.8-0.8,1.3-1.3,1.4h0
				c-0.2,0-0.5,0-0.7-0.1c-0.2-0.1-0.4-0.1-0.6-0.2c0.5-0.7,0.9-1.4,1.2-2.2c0.3-0.8,0.4-1.5,0.4-2.2c0-0.7-0.1-1.2-0.4-1.6
				c-0.3-0.4-0.6-0.6-1-0.6c-0.4,0-0.8,0.2-1.1,0.7c-0.4,0.5-0.8,1.4-1.3,2.6c0.1-0.6,0.3-1.4,0.5-2.3c0.2-1.1,0.4-1.8,0.4-1.9
				c0-0.1,0-0.2-0.1-0.3c-0.1-0.1-0.2-0.1-0.4-0.1c-0.5,0-0.9,0.7-1.1,2.2c-0.1,0.6-0.1,1.1-0.2,1.5l0,0.2c-0.4,2.8-1,4.2-1.7,4.3
				c0,0,0,0,0,0c-0.3,0-0.5-0.1-0.6-0.2c-0.1-0.1-0.2-0.2-0.2-0.4c0-0.1,0-0.4,0.1-0.7c0.1-0.3,0.1-0.6,0.2-0.9l0.1-0.3
				c0.5-1.8,0.7-2.8,0.7-3.2c0-0.3-0.1-0.6-0.2-0.8c-0.2-0.2-0.4-0.3-0.6-0.3c-0.4,0-0.8,0.3-1.2,0.8c-0.4,0.5-1,1.6-1.7,3.3
				c0.3-0.9,0.5-1.6,0.6-2c0.1-0.5,0.2-0.8,0.2-1c0-0.3-0.1-0.6-0.2-0.8c-0.1-0.2-0.3-0.3-0.5-0.3c-0.4,0-0.8,0.3-1.2,1
				c-0.4,0.7-1,1.7-1.6,3.2c0.2-0.8,0.4-1.7,0.6-2.5c0.2-0.9,0.4-1.4,0.4-1.5c0-0.1-0.1-0.2-0.2-0.3c-0.1-0.1-0.3-0.1-0.6-0.1
				c-0.3,0-0.6,0.5-0.7,1.6c-0.1,0.8-0.2,1.4-0.3,2c-0.2,1.2-0.5,2.1-0.8,2.6c-0.3,0.5-0.6,0.8-1,0.8l-0.2,1.2
				c0.3,0,0.5-0.1,0.8-0.2c0.2-0.1,0.4-0.3,0.6-0.6c0,0,0,0,0,0.1c-0.1,0.3-0.1,0.4-0.1,0.5c0,0.1,0,0.2,0.1,0.2
				c0.1,0.1,0.2,0.1,0.3,0.1c0.2,0,0.4,0,0.5-0.1c0.1,0,0.2-0.1,0.2-0.2c0,0,0.1-0.3,0.2-0.8c0.1-0.5,0.2-0.9,0.4-1.3
				c0.3-1,0.7-1.9,1.1-2.8c0.5-0.9,0.8-1.3,1-1.3c0.1,0,0.1,0,0.2,0.1c0,0.1,0.1,0.1,0.1,0.3c0,0.2,0,0.4-0.1,0.8
				c-0.1,0.4-0.3,1.1-0.6,2.2c-0.1,0.4-0.3,1-0.4,1.6c-0.2,0.6-0.3,1-0.3,1.1c0,0.1,0.1,0.2,0.2,0.3c0.1,0.1,0.3,0.1,0.6,0.1
				c0.3,0,0.5-0.3,0.7-0.8c0.1-0.4,0.2-0.8,0.3-1.1c0.4-1.2,0.8-2.2,1.3-3.1c0.5-0.9,0.8-1.3,0.9-1.3c0.1,0,0.1,0,0.1,0.1
				c0,0,0,0.1,0,0.2c0,0.1,0,0.2-0.1,0.4c0,0.2-0.1,0.6-0.3,1.1c0,0.2-0.1,0.4-0.2,0.7c-0.3,1.1-0.5,1.9-0.5,2.2
				c0,0.5,0.2,0.9,0.5,1.2c0.3,0.3,0.8,0.4,1.4,0.4h0.1c0.2,0,0.4-0.1,0.5-0.1c0.2-0.1,0.3-0.2,0.4-0.3c-0.1,0.7-0.3,1.6-0.6,2.6
				c-0.2,1-0.4,1.6-0.4,1.8c0,0.1,0,0.2,0.1,0.2c0.1,0.1,0.1,0.1,0.2,0.1c0.4,0,0.6,0,0.7-0.1c0.1-0.1,0.2-0.3,0.3-0.6
				c0-0.1,0-0.2,0.1-0.4c0.2-1.5,0.5-2.7,0.7-3.6c0.2,0.1,0.3,0.2,0.5,0.3c0.2,0.1,0.3,0.1,0.5,0.1c0.2,0,0.4,0,0.6-0.1
				c0.2-0.1,0.4-0.2,0.6-0.4c0.2,0.2,0.5,0.4,0.7,0.5c0.3,0.1,0.5,0.1,0.9,0.1h0.1h0c0.7-0.1,1.4-0.6,1.9-1.5c0.5-1,1.1-2.5,1.6-4.7
				c0.2,0.2,0.4,0.4,0.5,0.5c0.1,0.1,0.2,0.3,0.2,0.4c0,0.3-0.1,0.9-0.4,1.8c-0.3,0.9-0.4,1.6-0.4,2.1c0,0.5,0.1,0.9,0.4,1.1
				c0.3,0.2,0.8,0.4,1.5,0.4h0.2c0.4,0,0.8-0.1,1.1-0.2c0.4-0.2,0.7-0.4,1.1-0.6c0.2,0.3,0.5,0.5,0.8,0.6c0.3,0.1,0.7,0.2,1.1,0.2
				h0.1c0,0,0,0,0,0c0.3-0.1,0.5-0.1,0.7-0.3c0.2-0.1,0.4-0.3,0.6-0.5c0.2,0.2,0.4,0.4,0.7,0.6c0.3,0.1,0.5,0.2,0.8,0.2
				c0.2,0,0.4,0,0.6-0.1c0.2-0.1,0.4-0.2,0.7-0.3c0.2,0.1,0.4,0.2,0.6,0.3c0.2,0.1,0.4,0.1,0.6,0.1h0.1c0,0,0,0,0,0
				c0.3,0,0.6-0.1,0.8-0.2c0.2-0.1,0.5-0.2,0.7-0.3c0.1,0.2,0.2,0.3,0.4,0.4c0.2,0.1,0.4,0.1,0.6,0.1c0.4,0,0.9-0.3,1.3-0.8
				c0.4-0.5,0.8-1.3,1.2-2.4c-0.1,0.5-0.2,0.8-0.2,1.1c0,0.3-0.1,0.5-0.1,0.7c0,0.5,0.1,0.8,0.4,1c0.2,0.2,0.7,0.3,1.3,0.3h0.1h0
				c0.2-0.1,0.5-0.1,0.7-0.3c0.2-0.1,0.4-0.3,0.6-0.5c0.2,0.2,0.4,0.4,0.6,0.6c0.3,0.1,0.6,0.2,0.8,0.2c0.2,0,0.4,0,0.6-0.1
				c0.2-0.1,0.4-0.2,0.7-0.3c0.2,0.1,0.4,0.2,0.6,0.3c0.2,0.1,0.4,0.1,0.6,0.1h0.2l0.2-1.2h-0.1C339.2,196.3,339,196.3,338.9,196.3z
				 M310.7,195.6c-0.2-0.1-0.3-0.2-0.4-0.2c-0.1,0-0.3-0.1-0.4-0.1c-0.1,0-0.3,0-0.4,0.1c-0.1,0.1-0.3,0.1-0.4,0.3
				c0.4-1.4,0.7-2.5,1.2-3.4c0.4-0.9,0.8-1.3,1.2-1.3c0.2,0,0.3,0.1,0.4,0.3c0.1,0.2,0.2,0.5,0.2,0.8c0,0.5-0.1,1.1-0.3,1.7
				C311.4,194.5,311.1,195.1,310.7,195.6z M320.7,194.9c-0.1-0.2-0.2-0.3-0.2-0.5c0-0.2-0.1-0.4-0.1-0.7c0-0.7,0.1-1.4,0.4-1.9
				c0.2-0.6,0.5-0.8,0.8-0.8c0.1,0,0.3,0.1,0.3,0.2c0.1,0.1,0.1,0.3,0.1,0.6c0,0.5-0.1,1.1-0.4,1.7
				C321.4,194,321.1,194.5,320.7,194.9z M325.9,195.5c-0.2,0.4-0.5,0.7-0.8,0.8c-0.1-0.2-0.1-0.5-0.3-0.6c-0.1-0.2-0.2-0.3-0.4-0.4
				c0.3-0.5,0.7-1.1,0.9-1.6c0.3-0.6,0.5-1.1,0.6-1.6c0.1,0.4,0.1,0.7,0.2,1c0,0.3,0,0.6,0,0.8C326.2,194.6,326.1,195.1,325.9,195.5
				z M331.6,194.9c-0.4,0.8-0.8,1.2-1.2,1.2c-0.1,0-0.2-0.1-0.3-0.2c-0.1-0.1-0.1-0.3-0.1-0.6c0-0.4,0.1-0.8,0.2-1.4
				c0.2-0.5,0.3-1,0.6-1.5c0.3-0.5,0.5-0.9,0.8-1.2c0.3-0.3,0.5-0.4,0.8-0.4c0.1,0,0.2,0,0.3,0.1c0.1,0,0.2,0.1,0.3,0.3
				C332.5,192.8,332.1,194,331.6,194.9z M337.5,195.5c-0.2,0.4-0.5,0.7-0.8,0.8c-0.1-0.2-0.2-0.5-0.3-0.6c-0.1-0.2-0.2-0.3-0.4-0.4
				c0.3-0.5,0.7-1.1,0.9-1.6c0.3-0.6,0.5-1.1,0.6-1.6c0.1,0.4,0.1,0.7,0.2,1c0,0.3,0.1,0.6,0.1,0.8
				C337.8,194.6,337.7,195.1,337.5,195.5z"/>
		</g>
	</g>
</g>
</svg>
