<?xml version="1.0" encoding="utf-8"?>
<!-- Generator: Adobe Illustrator 24.1.2, SVG Export Plug-In . SVG Version: 6.00 Build 0)  -->
<svg version="1.1" id="Layer_1" xmlns="http://www.w3.org/2000/svg" xmlns:xlink="http://www.w3.org/1999/xlink" x="0px" y="0px"
	 viewBox="0 0 184.7 82.8" style="enable-background:new 0 0 184.7 82.8;" xml:space="preserve">
<style type="text/css">
	.st0{fill:url(#SVGID_1_);}
	.st1{fill:url(#SVGID_2_);}
	.st2{fill:url(#SVGID_3_);}
	.st3{fill:url(#SVGID_4_);}
	.st4{fill:#FFFFFF;}
</style>
<g>
	
		<linearGradient id="SVGID_1_" gradientUnits="userSpaceOnUse" x1="43.8143" y1="726.5884" x2="1.5171" y2="788.0842" gradientTransform="matrix(1 0 0 1 0 -735.0471)">
		<stop  offset="0" style="stop-color:#FFFFFF"/>
		<stop  offset="1" style="stop-color:#000000"/>
	</linearGradient>
	<polygon class="st0" points="47.9,0 24.1,0 0,41.4 23.4,41.4 	"/>
	
		<linearGradient id="SVGID_2_" gradientUnits="userSpaceOnUse" x1="8.314452e-02" y1="787.0562" x2="47.7001" y2="787.0562" gradientTransform="matrix(1 0 0 1 0 -735.0471)">
		<stop  offset="0" style="stop-color:#FFFFFF"/>
		<stop  offset="1" style="stop-color:#000000"/>
	</linearGradient>
	<polygon class="st1" points="47.9,82.8 24.1,82.8 0,41.4 11.9,21.2 	"/>
</g>
<g>
	
		<linearGradient id="SVGID_3_" gradientUnits="userSpaceOnUse" x1="1247.714" y1="726.6634" x2="1205.4167" y2="788.1592" gradientTransform="matrix(-1 0 0 1 1388.4318 -735.0471)">
		<stop  offset="0" style="stop-color:#FFFFFF"/>
		<stop  offset="1" style="stop-color:#000000"/>
	</linearGradient>
	<polygon class="st2" points="136.8,0 160.2,0 184.7,41.4 161.3,41.4 	"/>
	
		<linearGradient id="SVGID_4_" gradientUnits="userSpaceOnUse" x1="1203.8735" y1="787.0562" x2="1251.4907" y2="787.0562" gradientTransform="matrix(-1 0 0 1 1388.4318 -735.0471)">
		<stop  offset="5.025126e-03" style="stop-color:#FFFFFF"/>
		<stop  offset="1" style="stop-color:#000000"/>
	</linearGradient>
	<polygon class="st3" points="136.8,82.8 160.2,82.8 184.7,41.4 172.8,21.2 	"/>
</g>
<g>
	<path class="st4" d="M41.4,45.4c0-3.3,0.3-6.5,1.8-9.4c1.1-2.9,2.5-5.4,4.7-7.6s4.7-4,7.6-5c2.9-1.5,6.1-1.8,10.1-1.8
		c2.5,0,4.7,0.3,6.8,0.7c2.2,0.3,4,1.1,6.1,1.8l-2.9,10.4c-1.1-0.3-2.5-0.7-4-1.1C69.5,32.3,68,32,66.2,32c-4,0-6.8,1.1-8.6,3.6
		c-1.8,2.5-2.9,5.4-2.9,9.4c0,4.3,0.7,7.2,2.5,9.7c1.8,2.2,5,3.3,9.4,3.3c1.5,0,3.3,0,5-0.3c1.7-0.3,3.6-0.7,5-1.5l1.8,10.8
		c-1.5,0.7-3.3,1.1-5.8,1.8c-2.2,0.3-4.7,0.7-7.6,0.7c-4.3,0-7.9-0.7-10.8-1.8c-2.9-1.1-5.4-2.9-7.6-5C45,60.5,43.5,58,42.4,55
		C41.7,51.8,41.4,48.6,41.4,45.4z"/>
	<path class="st4" d="M117.7,18c-6.5,0-10.8,1.8-13.7,5.4s-4.3,8.2-4.3,14.3c0,2.9,0.3,5.8,1.1,8.3c0.7,2.5,1.8,4.7,3.3,6.1
		c1.5,1.8,3.3,3.3,5.4,4c2.2,1.1,4.7,1.5,7.2,1.5c1.5,0,2.9,0,4,0c1.1,0,2.2,0,2.9-0.3V36h13.7v29.9c-1.8,0.7-4.3,1.5-7.9,2.2
		c-3.6,0.7-7.9,1.1-13.3,1.1c-4.7,0-8.6-0.7-12.2-2.2c-3.6-1.5-6.8-3.6-9.4-6.1c-2.5-2.5-4.7-6.1-6.1-10.1c-1.5-4-2.2-8.3-2.2-13.3
		s0.7-9.7,2.5-13.3c1.5-4,3.6-7.2,6.5-10.1c2.9-2.9,6.1-4.7,9.7-6.1c3.6-1.5,7.6-2.2,11.9-2.2c2.9,0,5.4,0.3,7.9,0.7
		c2.2,0.3,4.3,0.7,6.1,1.5c1.8,0.3,2.9,1.1,4,1.5c1.1,0.3,1.8,1.1,2.2,1.1l-4,10.8c-1.8-1.1-4-1.8-6.5-2.5
		C123.1,18.4,120.6,18,117.7,18z"/>
</g>
</svg>
